<svg xmlns="http://www.w3.org/2000/svg" width="195.811" height="61.375" viewBox="0 0 195.811 61.375">
  <g id="Group_257" data-name="Group 257" transform="translate(-8 -510.292)">
    <g id="Group_241" data-name="Group 241" transform="translate(8.493 510.292)">
      <g id="Group_240" data-name="Group 240" transform="translate(0 0)">
        <path id="Path_524" data-name="Path 524" d="M100.64,526.784a16.479,16.479,0,1,1-16.472-16.492A16.48,16.48,0,0,1,100.64,526.784Z" transform="translate(-56.263 -510.292)"/>
        <g id="Group_239" data-name="Group 239" transform="translate(0 1.009)">
          <g id="Group_231" data-name="Group 231" transform="translate(0 31.732)">
            <g id="Group_230" data-name="Group 230">
              <path id="Path_525" data-name="Path 525" d="M26.1,682.135a7.817,7.817,0,1,1-7.812-7.815A7.815,7.815,0,0,1,26.1,682.135Z" transform="translate(-10.468 -674.321)"/>
              <path id="Path_526" data-name="Path 526" d="M137.988,780.968a4.084,4.084,0,1,1-4.086-4.086A4.086,4.086,0,0,1,137.988,780.968Z" transform="translate(-105.996 -756.41)"/>
            </g>
          </g>
          <g id="Group_238" data-name="Group 238" transform="translate(12.733)">
            <g id="Group_236" data-name="Group 236">
              <g id="Group_235" data-name="Group 235" transform="translate(0 0.879)">
                <path id="Path_527" data-name="Path 527" d="M215.965,561.2Z" transform="translate(-187.681 -552.924)" fill="#fff"/>
                <path id="Path_528" data-name="Path 528" d="M113.756,657.766Z" transform="translate(-105.873 -630.218)" fill="#fff"/>
                <path id="Path_529" data-name="Path 529" d="M209.287,550.285Z" transform="translate(-182.336 -544.19)" fill="#fff"/>
                <path id="Path_530" data-name="Path 530" d="M137.9,666.418h0Z" transform="translate(-125.196 -637.143)" fill="#fff"/>
                <path id="Path_531" data-name="Path 531" d="M137.9,666.418h0Z" transform="translate(-125.196 -637.143)" fill="#fff"/>
                <path id="Path_532" data-name="Path 532" d="M202.893,586.316v-.067c.008-.113.026-.186.216-.2.043,0,.214-.018.258-.018,0,.044.02.339.024.374a.182.182,0,0,0,.141-.006c0-.033-.025-.33-.025-.38.044-.007.364-.029.4-.032s.059,0,.07.065.015.169.015.3c0,.211-.217.229-.29.243a.127.127,0,0,0,.022.136c.1-.005.3-.027.407-.035a11.736,11.736,0,0,0-.083-1.187.151.151,0,0,0-.113.008c0,.019,0,.028,0,.05.008.143-.1.15-.259.167-.1.008-.325.022-.545.05-.246.034-.27-.009-.3-.12a.123.123,0,0,0,0-.037.127.127,0,0,0-.113.011c.031.214.049.437.064.681A.17.17,0,0,0,202.893,586.316Z" transform="translate(-177.08 -572.377)" fill="#fff"/>
                <path id="Path_533" data-name="Path 533" d="M106.129,628.466a.163.163,0,0,1,.04.056c.064.079.094.158-.038.287-.029.028-.154.142-.186.175-.027-.026-.228-.241-.253-.27a.215.215,0,0,0-.107.1c.027.021.228.238.261.277-.031.029-.261.255-.292.278s-.051.037-.094-.007a1.72,1.72,0,0,1-.2-.218c-.138-.165.019-.319.062-.371a.113.113,0,0,0-.1-.093c-.078.073-.214.208-.291.292.343.384.508.569.807.852a.126.126,0,0,0,.079-.081.191.191,0,0,0-.034-.035c-.094-.108-.016-.177.095-.3.075-.067.237-.22.4-.379.177-.18.216-.165.3-.1a.388.388,0,0,1,.035.036.146.146,0,0,0,.076-.09c-.157-.145-.308-.308-.475-.483C106.188,628.4,106.142,628.447,106.129,628.466Z" transform="translate(-98.811 -606.709)" fill="#fff"/>
                <path id="Path_534" data-name="Path 534" d="M202.941,594.786c.437-.1.478-.127.824-.2.122-.026.169-.036.172.073a.287.287,0,0,1,0,.055.1.1,0,0,0,.111.01c.018-.2.029-.413.034-.647a.081.081,0,0,0-.112-.007c0,.019,0,.05-.007.08-.029.1-.067.126-.226.166-.084.025-1.037.252-1.064.258s-.017.02-.017.032.039.174.053.237c.314.146.764.382.945.482s.183.166.183.225c0,.031-.006.048-.006.068a.088.088,0,0,0,.113.022c.02-.142.057-.4.068-.549-.013-.034-.083-.036-.113-.012,0,.016,0,.044-.006.059-.016.071-.034.1-.188.032C203.47,595.064,203.178,594.912,202.941,594.786Z" transform="translate(-177.028 -579.22)" fill="#fff"/>
                <path id="Path_535" data-name="Path 535" d="M190.779,555.477a.129.129,0,0,1,.089-.068c.015.013.049.048.061.061.1.077.127.083.312-.059.115-.1.341-.273.426-.344s.208-.153.132-.268c-.015-.024-.037-.049-.045-.065a.1.1,0,0,1,.085-.075c.152.184.322.4.422.54,0,.032-.06.074-.088.066-.022-.027-.042-.042-.045-.054-.1-.1-.2-.027-.313.054-.147.129-.34.27-.428.345-.16.119-.2.161-.141.27.012.017.04.06.053.083s-.057.065-.09.06C191.077,555.841,190.916,555.638,190.779,555.477Z" transform="translate(-167.521 -547.692)" fill="#fff"/>
                <path id="Path_536" data-name="Path 536" d="M95.356,571.024a.119.119,0,0,1-.1-.04.562.562,0,0,0,.025-.084c.022-.115.009-.151-.215-.231-.144-.052-.411-.155-.521-.192s-.231-.1-.3.026a.692.692,0,0,1-.03.072.083.083,0,0,1-.1-.037c.081-.248.177-.494.238-.635a.086.086,0,0,1,.1.036.384.384,0,0,0-.024.067c-.04.136.073.184.208.232.185.078.406.164.519.206.183.069.24.078.306-.025.012-.017.031-.071.042-.091a.1.1,0,0,1,.1.045C95.554,570.512,95.418,570.855,95.356,571.024Z" transform="translate(-90.15 -559.886)" fill="#fff"/>
                <path id="Path_537" data-name="Path 537" d="M195.409,562.482a.073.073,0,0,1,.085-.076.214.214,0,0,0,.044.055c.014.024.053.1.135.061s.125-.065.161-.09c-.039-.075-.2-.338-.325-.52a.161.161,0,0,1,.048-.113c.031,0,1.263.181,1.34.185a.171.171,0,0,1-.013.163c-.064,0-1.071-.151-1.151-.163a3.938,3.938,0,0,1,.231.378c.051-.032.2-.108.282-.158a.047.047,0,0,1,.038.013l.147.158a.046.046,0,0,1-.011.036c-.09.048-.273.15-.33.18.031.048.1.175.1.175a.116.116,0,0,1-.133.071s-.072-.138-.092-.179c-.031.02-.125.068-.171.1-.067.036-.021.111-.007.14s.024.05.037.08a.093.093,0,0,1-.106.045C195.625,562.844,195.54,562.7,195.409,562.482Z" transform="translate(-171.227 -553.407)" fill="#fff"/>
                <path id="Path_538" data-name="Path 538" d="M197.642,567.937a.111.111,0,0,1,.008-.16c.057,0,1.23.036,1.338.044-.058-.142-.14-.366-.184-.45a.181.181,0,0,0-.172-.1.631.631,0,0,0-.065,0,.1.1,0,0,1-.013-.129,2.872,2.872,0,0,0,.382-.047c.02.047.043.1.06.14s.193.457.223.523.068.16.1.209a.74.74,0,0,0-.047.07,1.81,1.81,0,0,0-.23-.043C198.978,567.987,197.76,567.937,197.642,567.937Z" transform="translate(-172.99 -557.64)" fill="#fff"/>
                <path id="Path_539" data-name="Path 539" d="M104.522,553.88a.123.123,0,0,1-.145.07c-.025-.05-.544-1.1-.59-1.2-.089.118-.254.292-.314.372a.22.22,0,0,0-.009.209.3.3,0,0,1,.028.056.084.084,0,0,1-.1.065c-.034-.053-.188-.276-.229-.32.033-.045.065-.078.092-.117s.31-.385.359-.445a1.311,1.311,0,0,0,.135-.189.49.49,0,0,0,.087.016,1.06,1.06,0,0,0,.077.22C103.935,552.676,104.466,553.772,104.522,553.88Z" transform="translate(-97.393 -545.87)" fill="#fff"/>
                <path id="Path_540" data-name="Path 540" d="M199.97,575.229a.094.094,0,0,1,.1-.051,1.073,1.073,0,0,0,.369.412.812.812,0,0,0,.626.079c.228-.057.448-.216.369-.422a.233.233,0,0,0-.335-.114.259.259,0,0,0-.182.383.061.061,0,0,1-.075.065.411.411,0,0,1,.132-.69.442.442,0,0,1,.591.3.543.543,0,0,1-.436.727A1.032,1.032,0,0,1,199.97,575.229Z" transform="translate(-174.878 -563.861)" fill="#fff"/>
                <path id="Path_541" data-name="Path 541" d="M198.279,614.205c-.013.013-.019.045-.044.072-.043.053-.077.078-.262-.013L197.4,614c-.178-.087-.178-.1-.148-.205l.017-.063c-.012-.053-.066-.057-.107-.038l-.118.272-.154.31a.682.682,0,0,0,.187.988c.355.23.756.143,1.042-.45.106-.22.184-.384.257-.555C198.388,614.218,198.318,614.188,198.279,614.205Zm-.238.477a.385.385,0,0,1-.038.085.5.5,0,0,1-.723.284.508.508,0,0,1-.332-.415.5.5,0,0,1,.054-.293c.039-.088.063-.125.109-.138a.281.281,0,0,1,.213.045s.676.332.694.337S198.054,614.616,198.04,614.682Z" transform="translate(-172.308 -594.938)" fill="#fff"/>
                <path id="Path_542" data-name="Path 542" d="M186.5,630.743a.3.3,0,0,1,.058.137.245.245,0,0,1-.085.222c-.027.025-.076.068-.13.126,0-.01-.447-.477-.553-.589-.151-.159-.164-.195-.092-.294a.2.2,0,0,1,.042-.038.175.175,0,0,0-.08-.082c-.125.121-.341.331-.466.429,0,.037.047.09.072.09s.044-.031.059-.04c.1-.067.144-.031.284.113.068.07.541.575.547.582a1.544,1.544,0,0,1-.172.158.182.182,0,0,1-.211.01.413.413,0,0,1-.089-.069.091.091,0,0,0-.074.079c.032.037.2.229.245.275a9.753,9.753,0,0,0,.931-.868c-.013-.015-.166-.271-.179-.3A.1.1,0,0,0,186.5,630.743Z" transform="translate(-163.048 -608.173)" fill="#fff"/>
                <path id="Path_543" data-name="Path 543" d="M190.308,622.574a.093.093,0,0,0,.089.069.308.308,0,0,1,.033-.036c.073-.068.1-.027.163.077a1.038,1.038,0,0,1,.08.14c-.043.053-.258.329-.3.379-.045-.012-.053-.025-.152-.05s-.168-.053-.106-.141a.174.174,0,0,0,.035-.034.1.1,0,0,0-.091-.071c-.06.068-.191.229-.367.433a.092.092,0,0,0,.074.08c.017-.017.037-.03.059-.05.1-.091.2-.031.289-.005s1.043.344,1.059.35.031,0,.036-.014.037-.14.043-.169c-.036-.065-.434-.755-.537-.937s-.09-.226-.068-.284a.182.182,0,0,0,.026-.066.08.08,0,0,0-.093-.054C190.551,622.237,190.34,622.538,190.308,622.574Zm.721.843-.543-.181.249-.314Z" transform="translate(-166.651 -601.74)" fill="#fff"/>
                <path id="Path_544" data-name="Path 544" d="M91.163,589.26a.379.379,0,0,1-.145-.056.268.268,0,0,1-.091-.221v-.176l.808.019c.222,0,.259.018.273.13a.335.335,0,0,1,0,.065.167.167,0,0,0,.113,0c0-.181.005-.477.018-.635a.12.12,0,0,0-.113-.009.192.192,0,0,1-.016.064c-.018.119-.073.131-.273.128-.111-.006-.794-.02-.8-.02,0-.1.009-.187.009-.233a.19.19,0,0,1,.145-.159.392.392,0,0,1,.108-.015.093.093,0,0,0,0-.112c-.049,0-.3-.008-.369-.013a9.943,9.943,0,0,0-.029,1.274c.025,0,.312.074.349.083A.1.1,0,0,0,91.163,589.26Z" transform="translate(-87.488 -574.392)" fill="#fff"/>
                <path id="Path_545" data-name="Path 545" d="M92.2,595.563a.094.094,0,0,0-.115,0c0,.02,0,.013,0,.05,0,.105-.049.091-.169.06-.082-.025-.122-.034-.155-.044,0-.067-.041-.409-.05-.473.046-.026.063-.026.151-.068s.154-.085.171.026c0,.025,0,.029.007.043a.088.088,0,0,0,.115-.013c-.013-.088-.028-.294-.043-.564-.028-.037-.092-.017-.116,0v.075c-.009.118-.129.161-.211.2s-.977.473-1,.484-.026.018-.02.036.074.121.094.153c.065.016.823.236,1.026.286.209.068.223.115.251.172a.244.244,0,0,1,.016.059.093.093,0,0,0,.117-.022A4.581,4.581,0,0,1,92.2,595.563Zm-1.1-.107.512-.244.044.391Z" transform="translate(-87.468 -579.63)" fill="#fff"/>
                <path id="Path_546" data-name="Path 546" d="M101.828,621.413a.762.762,0,0,0-.492-.341.727.727,0,0,0-.542.114.738.738,0,0,0-.313.454.8.8,0,0,0,.143.586.731.731,0,0,0,1.049.223.7.7,0,0,0,.3-.435A.761.761,0,0,0,101.828,621.413Zm-.376.806a.591.591,0,0,1-.442.12.384.384,0,0,1-.257-.18.378.378,0,0,1-.06-.3.692.692,0,0,1,.319-.427c.287-.19.544-.173.694.049C101.9,621.765,101.691,622.056,101.452,622.22Z" transform="translate(-95.238 -600.838)" fill="#fff"/>
                <path id="Path_547" data-name="Path 547" d="M112.592,632.921a.118.118,0,0,1-.065.086.125.125,0,0,0-.039-.019c-.1-.058-.149-.058-.307.136-.108.151-.243.324-.332.434-.095.131-.157.206-.05.3a.323.323,0,0,0,.039.03.135.135,0,0,1-.065.091,11.419,11.419,0,0,1-.911-.73c.051-.072.156-.212.21-.275a.116.116,0,0,1,.111.063.381.381,0,0,0-.053.115.2.2,0,0,0,.046.208,1.9,1.9,0,0,0,.244.2c.052.038.076.021.1,0s.227-.281.252-.313c-.043-.037-.272-.222-.3-.244a.172.172,0,0,1,.083-.1c.03.027.26.211.294.238,0,0,.159-.188.17-.208.132-.162.1-.194-.02-.3-.044-.036-.081-.062-.1-.084a.239.239,0,0,0-.3,0c-.042.02-.057.032-.075.04a.106.106,0,0,1-.08-.1c.03-.026.245-.2.305-.241C111.977,632.444,112.273,632.684,112.592,632.921Z" transform="translate(-103.556 -609.789)" fill="#fff"/>
                <path id="Path_548" data-name="Path 548" d="M93.456,603.766a.1.1,0,0,1,.116-.029,5.213,5.213,0,0,0,.173.5.072.072,0,0,1-.1.041.339.339,0,0,0-.021-.049c-.04-.066-.059-.111-.282-.074-.132.02-.525.091-.6.114-.129.035-.266.069-.217.211a.287.287,0,0,1,.017.057.079.079,0,0,1-.1.039c-.061-.178-.109-.32-.174-.5a.7.7,0,0,0,.224-.136c.115-.111.444-.371.587-.506-.119-.028-.705-.116-.744-.117a.836.836,0,0,0-.281-.027c-.024-.089-.09-.348-.116-.5a.078.078,0,0,1,.109-.015.133.133,0,0,0,.019.049c.017.08.041.116.206.073.182-.052.459-.144.609-.207.179-.076.256-.1.239-.193,0-.048,0-.051-.006-.082a.1.1,0,0,1,.111-.023c.054.3.087.439.127.61a.1.1,0,0,1-.1.031c-.009-.019-.011-.041-.016-.05-.042-.092-.042-.138-.254-.068-.185.066-.591.211-.7.245.154.032.573.093.789.133a2.983,2.983,0,0,0,.387.064.084.084,0,0,1,.024.079,2.186,2.186,0,0,0-.3.243c-.152.138-.52.44-.586.5.151-.041.524-.122.644-.147.154-.033.284-.066.247-.178" transform="translate(-88.405 -585.879)" fill="#fff"/>
                <path id="Path_549" data-name="Path 549" d="M200.547,603.317a.071.071,0,0,1,.107.016c0,.012-.01.047-.013.066-.011.1.042.153.249.19.18.04.394.08.545.112s.251.071.287-.054a.625.625,0,0,0,.019-.062.1.1,0,0,1,.106.014c-.017.095-.065.293-.088.4a.256.256,0,0,0-.011.07.414.414,0,0,0-.127.04c-.034.018-.926.452-1.031.513.094.033.444.161.54.194.185.059.244.086.3-.05.006-.016.017-.045.023-.059a.1.1,0,0,1,.105.031c-.052.187-.122.39-.172.523-.036.02-.089-.012-.1-.041a.213.213,0,0,0,.015-.058c.029-.1,0-.136-.217-.206-.148-.055-.816-.31-.89-.316a.122.122,0,0,1-.015-.092c.183-.1,1.281-.644,1.347-.676-.086-.022-.527-.118-.662-.143-.218-.033-.27-.019-.307.076a.632.632,0,0,0-.016.065.094.094,0,0,1-.111-.032C200.458,603.7,200.528,603.405,200.547,603.317Z" transform="translate(-175.037 -586.623)" fill="#fff"/>
                <path id="Path_550" data-name="Path 550" d="M91.228,580.013a.46.46,0,0,1,.272.1c.017.02.64.4.747.482s.113.128.116.157,0,.04,0,.062a.068.068,0,0,0,.114,0c0-.053.023-.277.042-.442-.014-.047-.084-.047-.113-.021a.264.264,0,0,1-.015.069c-.014.035-.048.047-.106.016s-.217-.135-.27-.166c.006-.056.053-.38.058-.426.046,0,.229.012.259.017.145.029.121.123.118.147v.06a.071.071,0,0,0,.11.015c.057-.351.1-.612.208-1.059a2.559,2.559,0,0,0-.344-.148c-.052.008-.065.086-.045.12a.237.237,0,0,1,.071.044.233.233,0,0,1,.119.264c-.012.065-.018.086-.033.191-.031.11-.1.12-.22.115-.1,0-.231-.007-.27-.008l.062-.367a.2.2,0,0,0-.127-.013l-.068.367c-.052,0-.383-.028-.448-.034-.047,0-.037-.03-.033-.057s.02-.128.044-.253a.209.209,0,0,1,.16-.188.732.732,0,0,1,.128-.017.072.072,0,0,0,.008-.119c-.084,0-.246-.017-.344-.021-.073.311-.117.5-.157.764a1.424,1.424,0,0,1-.081.329C91.194,580,91.205,580.013,91.228,580.013Zm.149-.193a.059.059,0,0,1,.06-.027c.063.006.446.027.512.035-.007.085-.042.309-.046.361-.115-.073-.464-.289-.5-.315A.051.051,0,0,1,91.376,579.819Z" transform="translate(-87.814 -567.067)" fill="#fff"/>
                <path id="Path_551" data-name="Path 551" d="M177.346,635.595a.476.476,0,0,1-.107-.276c-.006-.019-.142-.749-.158-.876s.016-.167.037-.192a.466.466,0,0,0,.041-.045.064.064,0,0,0-.077-.079c-.04.033-.219.166-.359.271a.074.074,0,0,0,.066.092c.021-.011.031-.018.059-.036s.075,0,.088.065.053.257.057.313c-.04.036-.313.222-.348.253,0,0-.121-.145-.165-.2-.085-.124.009-.176.026-.19s.018-.013.047-.031a.078.078,0,0,0-.064-.1c-.3.2-.516.351-.917.57a1.744,1.744,0,0,0,.129.355.077.077,0,0,0,.114-.052.514.514,0,0,0-.017-.08.229.229,0,0,1,.116-.264c.055-.037.077-.047.161-.1s.147-.016.232.077c.057.066.155.171.177.2-.056.037-.262.177-.308.206a.152.152,0,0,0,.071.1c.06-.036.246-.163.318-.207.036.051.235.3.282.362.029.026,0,.041-.027.058a2.019,2.019,0,0,1-.208.134.2.2,0,0,1-.248.012.4.4,0,0,1-.1-.077.072.072,0,0,0-.09.076c.051.063.149.195.224.27.276-.158.442-.266.671-.411a1.911,1.911,0,0,1,.287-.165C177.363,635.622,177.363,635.607,177.346,635.595Zm-.237.012a.065.065,0,0,1-.062-.024c-.039-.055-.283-.348-.325-.4.075-.052.256-.176.3-.208.018.13.093.537.1.575A.061.061,0,0,1,177.109,635.607Z" transform="translate(-155.35 -611.296)" fill="#fff"/>
                <g id="Group_232" data-name="Group 232" transform="translate(4.395 18.467)">
                  <path id="Path_552" data-name="Path 552" d="M96.6,613.739c.227-.124.631-.333.731-.383.181-.093.217-.127.179-.242-.008-.023-.014-.047-.025-.074a.117.117,0,0,1,.1-.047c.077.161.208.4.292.554a.17.17,0,0,1-.1.062.127.127,0,0,0-.033-.054c-.068-.09-.107-.095-.3.014-.135.076-.395.224-.491.268-.2.109-.218.135-.173.243.011.025.015.036.024.054a.107.107,0,0,1-.1.056c-.119-.207-.27-.5-.3-.554a1.6,1.6,0,0,1-.081-.175.348.348,0,0,1,.178-.511.353.353,0,0,1,.426.1,3.566,3.566,0,0,0,.207-.407c.055-.147.072-.19.043-.286a.107.107,0,0,0-.009-.044.1.1,0,0,1,.1-.045c.017.032.075.194.146.346-.059.138-.306.625-.343.7a.2.2,0,0,1-.053-.005.274.274,0,0,0-.2-.159.324.324,0,0,0-.192.045.278.278,0,0,0-.142.147.333.333,0,0,0,.017.213.964.964,0,0,0,.07.123A.618.618,0,0,0,96.6,613.739Z" transform="translate(-96.281 -612.27)" fill="#fff"/>
                </g>
                <g id="Group_233" data-name="Group 233" transform="translate(8.844 23.233)">
                  <path id="Path_553" data-name="Path 553" d="M119.155,637.741c.121-.233.34-.623.394-.721.1-.179.112-.225.017-.3a.427.427,0,0,0-.061-.045c-.01-.038.029-.084.061-.1.149.092.4.227.553.3a.164.164,0,0,1-.054.111.17.17,0,0,0-.055-.021c-.113-.038-.144-.02-.253.179-.068.134-.207.4-.257.484-.1.2-.114.235-.013.3a.18.18,0,0,1,.052.031.106.106,0,0,1-.052.1c-.214-.106-.5-.264-.549-.3a1.461,1.461,0,0,1-.163-.1.362.362,0,0,1-.136-.531.351.351,0,0,1,.409-.146,2.941,2.941,0,0,0-.056-.453c-.029-.151-.043-.2-.112-.264a.314.314,0,0,1-.036-.03.1.1,0,0,1,.061-.094c.024.016.167.12.311.207.027.146.091.69.093.779a.358.358,0,0,1-.041.026.29.29,0,0,0-.258-.026.422.422,0,0,0-.134.142.339.339,0,0,0-.038.2.374.374,0,0,0,.132.17.724.724,0,0,0,.123.063A.338.338,0,0,0,119.155,637.741Z" transform="translate(-118.569 -636.148)" fill="#fff"/>
                </g>
                <path id="Path_554" data-name="Path 554" d="M97.7,565.167c.016-.043.2-.418-.073-.647s-.49.04-.622.364c-.1-.093-.408-.385-.467-.443.012-.052.2-.618.22-.672a.325.325,0,0,1,.18.149c-.029.09-.164.5-.18.543.029.032.1.092.129.12.061-.115.207-.39.49-.4.445-.012.69.461.456,1.042A.085.085,0,0,1,97.7,565.167Z" transform="translate(-92.095 -554.983)" fill="#fff"/>
                <path id="Path_555" data-name="Path 555" d="M99.834,559.535a.537.537,0,0,1,.05-.467.345.345,0,0,1,.258-.19.312.312,0,0,1,.3.366.3.3,0,0,1,.3-.138c.03,0,.335.047.4.5a.626.626,0,0,1-.243.63c-.149.037-.273-.123-.137-.235.063-.045.146.009.2-.047a.387.387,0,0,0-.089-.477c-.095-.07-.277-.147-.4-.007a.281.281,0,0,0-.029.254.109.109,0,0,1-.187,0,.963.963,0,0,0,.032-.442.16.16,0,0,0-.269-.1.321.321,0,0,0-.049.313A.092.092,0,0,1,99.834,559.535Z" transform="translate(-94.704 -551.068)" fill="#fff"/>
                <path id="Path_556" data-name="Path 556" d="M177.878,525.8a.21.21,0,0,1,.076-.157.489.489,0,0,0,.1.036c.187.054.238.047.4-.291.11-.22.323-.633.4-.791s.21-.353.011-.482c-.033-.016-.053-.032-.081-.046a.156.156,0,0,1,.07-.162c.357.167.7.348.922.476a.146.146,0,0,1-.083.157c-.044-.019-.059-.027-.081-.034-.209-.083-.289.078-.4.285-.147.29-.328.629-.408.783-.151.276-.171.371-.017.487.024.022.064.044.1.07.014.037-.046.127-.1.148C178.572,526.153,178.15,525.939,177.878,525.8Z" transform="translate(-157.195 -523.079)" fill="#fff"/>
                <path id="Path_557" data-name="Path 557" d="M196.746,540.95a.232.232,0,0,1,.121-.133,1.223,1.223,0,0,0,.1.076c.146.112.2.126.474-.132.181-.17.516-.484.645-.6s.321-.262.172-.453c-.026-.03-.031-.042-.055-.068,0-.053.078-.135.122-.128.277.29.534.581.7.766.009.057-.08.125-.134.119a.683.683,0,0,1-.059-.062c-.173-.149-.3-.023-.467.127-.24.223-.527.476-.662.594-.231.212-.285.288-.181.451a.594.594,0,0,0,.072.1.185.185,0,0,1-.147.109A9.647,9.647,0,0,0,196.746,540.95Z" transform="translate(-172.297 -535.565)" fill="#fff"/>
                <path id="Path_558" data-name="Path 558" d="M199.367,632.669a.246.246,0,0,1,.142.107.413.413,0,0,0-.059.1c-.1.163-.1.217.2.461.189.154.541.453.684.561s.3.285.463.116c.023-.029.042-.042.064-.07a.157.157,0,0,1,.138.11c-.25.329-.5.605-.663.791-.054.014-.134-.067-.134-.115.029-.038.04-.053.057-.073.123-.187-.022-.3-.193-.451-.246-.209-.542-.453-.677-.574-.24-.211-.325-.246-.473-.123-.023.019-.05.052-.082.081a.166.166,0,0,1-.127-.128C198.874,633.277,199.194,632.9,199.367,632.669Z" transform="translate(-173.864 -610.13)" fill="#fff"/>
                <path id="Path_559" data-name="Path 559" d="M146.526,657.963a.218.218,0,0,1,0,.185.651.651,0,0,0-.112.008c-.189.03-.229.06-.234.441,0,.248-.008.705-.01.884s-.032.415.195.436c.038,0,.058.007.1.012a.159.159,0,0,1,.005.173c-.393,0-.775-.012-1.04-.029-.046-.036-.028-.14.011-.177a.669.669,0,0,0,.088,0c.23-.016.23-.2.236-.429.011-.32.02-.7.031-.888.009-.315-.015-.4-.2-.449-.03-.006-.077-.006-.115-.015a.149.149,0,0,1,.016-.171C145.747,657.958,146.242,657.972,146.526,657.963Z" transform="translate(-131.201 -630.358)" fill="#fff"/>
                <path id="Path_560" data-name="Path 560" d="M100.587,640.955a.21.21,0,0,1-.115.14.414.414,0,0,0-.089-.062c-.169-.1-.215-.1-.468.183-.155.191-.451.534-.567.674s-.29.3-.119.466c.025.029.036.044.064.071a.149.149,0,0,1-.113.132c-.309-.248-.594-.5-.782-.684-.011-.055.065-.13.119-.13a.205.205,0,0,0,.069.056c.186.129.306-.009.454-.183.214-.247.466-.526.59-.665.207-.233.253-.32.137-.466-.025-.024-.061-.054-.09-.085a.17.17,0,0,1,.132-.125C99.992,640.453,100.359,640.777,100.587,640.955Z" transform="translate(-93.578 -616.221)" fill="#fff"/>
                <path id="Path_561" data-name="Path 561" d="M80.289,565.078a.2.2,0,0,1-.175-.057c.006-.037.022-.076.027-.108.025-.187.014-.238-.337-.363-.235-.088-.659-.248-.832-.3s-.374-.168-.476.046c-.014.031-.024.051-.037.081a.149.149,0,0,1-.166-.052c.13-.393.26-.738.368-.98a.145.145,0,0,1,.158.071.325.325,0,0,0-.022.087c-.057.222.117.284.327.362.3.115.658.251.828.319.3.115.386.12.487-.043a.8.8,0,0,1,.054-.1.172.172,0,0,1,.166.069C80.556,564.344,80.381,564.8,80.289,565.078Z" transform="translate(-77.488 -554.637)" fill="#fff"/>
                <path id="Path_562" data-name="Path 562" d="M203.452,549.9a13.368,13.368,0,0,0-.933-1.426.231.231,0,0,1,.142-.115.776.776,0,0,0,.066.077c.123.135.189.125.483-.083.2-.14.593-.423.721-.513.15-.1.358-.215.239-.41a.794.794,0,0,0-.047-.081c0-.054.1-.113.139-.107.24.317.448.635.589.847,0,.05-.079.106-.147.106-.027-.034-.038-.052-.053-.071-.128-.179-.32-.042-.485.071-.256.181-.5.349-.727.5-.255.181-.308.22-.229.393.01.029.063.115.111.2a.756.756,0,0,0,.229.235.564.564,0,0,0,.287.045,1.01,1.01,0,0,0,.173-.046.122.122,0,0,1,.065.173C203.931,549.746,203.719,549.826,203.452,549.9Z" transform="translate(-176.918 -541.755)" fill="#fff"/>
                <path id="Path_563" data-name="Path 563" d="M209.436,561.5a13.42,13.42,0,0,0-.663-1.571.227.227,0,0,1,.158-.088c.017.036.037.063.047.088.1.155.169.155.5,0,.217-.1.68-.3.82-.368.168-.074.388-.136.31-.362a.682.682,0,0,1-.033-.083.152.152,0,0,1,.159-.083c.177.362.327.705.422.941a.148.148,0,0,1-.166.074.426.426,0,0,1-.032-.074c-.1-.2-.306-.1-.491-.021-.291.128-.564.25-.826.36-.284.127-.344.15-.3.342.011.029.044.131.078.216a.79.79,0,0,0,.175.275.553.553,0,0,0,.3.091,1.053,1.053,0,0,0,.173-.01.123.123,0,0,1,.034.179C209.951,561.432,209.71,561.476,209.436,561.5Z" transform="translate(-181.924 -551.191)" fill="#fff"/>
                <path id="Path_564" data-name="Path 564" d="M168.124,521.914a1.5,1.5,0,0,1,.1-.54.236.236,0,0,1,.19.049c0,.2-.058.522.335.656a.338.338,0,0,0,.463-.153c.091-.2-.017-.365-.262-.59-.36-.34-.405-.536-.383-.713.036-.24.265-.678.918-.44a2.965,2.965,0,0,1,.555.274,2.413,2.413,0,0,1-.106.49.155.155,0,0,1-.186-.043.429.429,0,0,0-.264-.518c-.319-.133-.456.062-.485.17-.048.164.036.239.3.514.21.228.481.457.348.844a.7.7,0,0,1-.943.362A1.272,1.272,0,0,1,168.124,521.914Z" transform="translate(-149.388 -520.042)" fill="#fff"/>
                <path id="Path_565" data-name="Path 565" d="M156.242,657.338a1.694,1.694,0,0,1,.152.519.206.206,0,0,1-.2.044c-.086-.172-.175-.483-.59-.423-.263.039-.355.192-.346.343,0,.221.176.318.508.417.465.134.6.288.661.45.075.235.064.734-.63.808a2.939,2.939,0,0,1-.619.011,2.3,2.3,0,0,1-.116-.488.153.153,0,0,1,.182-.041.426.426,0,0,0,.467.34c.346-.028.382-.255.357-.37-.03-.166-.137-.193-.507-.324-.287-.1-.629-.185-.683-.595a.691.691,0,0,1,.677-.746A1.3,1.3,0,0,1,156.242,657.338Z" transform="translate(-138.785 -629.817)" fill="#fff"/>
                <path id="Path_566" data-name="Path 566" d="M92.6,633.924a1.693,1.693,0,0,1-.348.422.258.258,0,0,1-.151-.141c.1-.173.309-.424.033-.736a.347.347,0,0,0-.484-.091c-.175.129-.16.322-.06.654.144.461.094.657-.012.794-.158.2-.568.466-1.014-.065a2.88,2.88,0,0,1-.356-.511,2.84,2.84,0,0,1,.335-.369c.073,0,.118.049.14.129a.429.429,0,0,0-.025.576c.217.274.423.17.506.094.124-.121.084-.225-.01-.6-.074-.3-.195-.638.113-.91a.7.7,0,0,1,1,.147A1.387,1.387,0,0,1,92.6,633.924Z" transform="translate(-87.027 -610.411)" fill="#fff"/>
                <path id="Path_567" data-name="Path 567" d="M113.736,526.546a.189.189,0,0,1-.091-.155c.03-.018.06-.044.091-.062.143-.123.17-.168-.009-.5-.118-.218-.336-.615-.421-.773s-.172-.382-.383-.284a.365.365,0,0,0-.089.037.158.158,0,0,1-.087-.156c.344-.2.667-.367.913-.477.057.006.1.11.084.155-.045.025-.06.037-.076.046-.187.131-.1.285,0,.487.154.292.323.63.4.8.145.275.214.341.392.288.028-.012.066-.027.109-.044a.177.177,0,0,1,.071.16C114.416,526.177,114,526.39,113.736,526.546Z" transform="translate(-105.063 -523.291)" fill="#fff"/>
                <path id="Path_568" data-name="Path 568" d="M123.6,522.1a1.621,1.621,0,0,1-.27-.472.254.254,0,0,1,.189-.091c.13.157.276.441.667.3a.343.343,0,0,0,.261-.42c-.048-.21-.237-.266-.575-.293-.49-.03-.653-.148-.749-.3-.123-.214-.224-.7.437-.925a3.562,3.562,0,0,1,.608-.141,2.153,2.153,0,0,1,.22.451.147.147,0,0,1-.17.079.421.421,0,0,0-.525-.228c-.336.1-.316.336-.274.44.066.154.177.159.563.207.3.038.659.043.8.431a.7.7,0,0,1-.505.875A1.28,1.28,0,0,1,123.6,522.1Z" transform="translate(-113.296 -519.752)" fill="#fff"/>
                <path id="Path_569" data-name="Path 569" d="M104.591,531.965a1.666,1.666,0,0,1-.383-.375.225.225,0,0,1,.146-.143c.167.119.394.341.73.095a.322.322,0,0,0,.134-.462c-.1-.192-.3-.195-.636-.125-.474.1-.664.036-.8-.087-.178-.169-.4-.6.16-1.007a3.716,3.716,0,0,1,.543-.3,2,2,0,0,1,.337.373.14.14,0,0,1-.14.118.424.424,0,0,0-.566-.069c-.3.185-.219.4-.14.491.1.136.213.108.6.045.3-.048.644-.14.887.2a.7.7,0,0,1-.242.985A1.239,1.239,0,0,1,104.591,531.965Z" transform="translate(-97.732 -527.601)" fill="#fff"/>
                <path id="Path_570" data-name="Path 570" d="M205.892,619.046a.117.117,0,0,1,.163.068c-.008.019-.03.074-.04.1-.051.141.013.24.315.379.269.122.594.275.817.375s.364.2.47.019a.526.526,0,0,0,.053-.089.156.156,0,0,1,.155.07c-.041.116-.191.426-.265.578a.457.457,0,0,0-.034.1.549.549,0,0,0-.228.019c-.049.009-1.636.359-1.822.407l.77.508c.259.161.354.222.5.042.019-.025.048-.064.066-.083a.139.139,0,0,1,.151.088c-.158.259-.362.551-.49.734-.06.021-.133-.046-.144-.1.016-.024.03-.054.048-.083.071-.139.048-.209-.257-.409-.213-.139-1.163-.782-1.261-.819a.149.149,0,0,1,0-.145c.325-.073,2.247-.518,2.364-.557-.134-.061-.789-.359-1-.452-.316-.136-.405-.132-.49,0-.029.043-.039.067-.057.092a.133.133,0,0,1-.151-.089C205.622,619.624,205.83,619.184,205.892,619.046Z" transform="translate(-178.776 -599.216)" fill="#fff"/>
                <path id="Path_571" data-name="Path 571" d="M76.671,575.343a.113.113,0,0,1-.176-.006,1.017,1.017,0,0,0,.008-.111c0-.155-.1-.224-.423-.252-.3-.031-.642-.07-.879-.1s-.409-.064-.457.135c-.005.033-.013.056-.018.1a.153.153,0,0,1-.177-.01c0-.123.044-.461.066-.634a.28.28,0,0,0,0-.1.5.5,0,0,0,.21-.091c.046-.025,1.416-.876,1.575-.984-.157-.041-.73-.194-.888-.229-.3-.071-.41-.093-.477.124a.645.645,0,0,1-.03.1.158.158,0,0,1-.173-.039c.063-.3.146-.636.211-.846a.121.121,0,0,1,.163.041c0,.026-.012.063-.017.092-.024.165.023.214.377.3.242.068,1.351.359,1.456.363a.142.142,0,0,1,.045.141c-.276.183-1.93,1.226-2.037,1.29.156.016.855.093,1.078.11.342.025.426-.008.465-.154.013-.063.013-.082.019-.116a.16.16,0,0,1,.183.038C76.738,574.709,76.686,575.2,76.671,575.343Z" transform="translate(-74.491 -561.882)" fill="#fff"/>
                <path id="Path_572" data-name="Path 572" d="M91.438,539.9a.118.118,0,0,1-.146-.1c.012-.02.045-.064.059-.09.087-.13.038-.243-.213-.446l-.7-.545c-.186-.148-.31-.281-.452-.129a.612.612,0,0,0-.068.077.161.161,0,0,1-.142-.1c.075-.1.283-.372.394-.5a.291.291,0,0,0,.05-.082.592.592,0,0,0,.223.03c.052,0,1.666.014,1.862.012-.117-.123-.515-.554-.641-.671-.21-.214-.294-.3-.462-.153a.708.708,0,0,1-.084.073.152.152,0,0,1-.126-.127c.211-.214.468-.464.628-.607.062-.007.121.079.121.131-.016.018-.043.043-.067.065-.1.123-.092.2.162.464.18.176.957,1.026,1.047,1.082a.147.147,0,0,1-.04.141c-.333,0-2.294,0-2.414,0,.114.094.669.533.853.666.275.2.364.222.482.116a1.038,1.038,0,0,0,.078-.078.129.129,0,0,1,.126.119C91.835,539.4,91.525,539.785,91.438,539.9Z" transform="translate(-86.678 -533.187)" fill="#fff"/>
                <path id="Path_573" data-name="Path 573" d="M81.266,615.744a.189.189,0,0,0-.169.067.333.333,0,0,1,.036.105c.062.188-.011.241-.292.385a3.3,3.3,0,0,1-.334.174l-.468-1.021c.129-.059.256-.108.346-.14.34-.144.394-.139.492.026a.342.342,0,0,1,.043.083.2.2,0,0,0,.163-.078,8.286,8.286,0,0,1-.357-.92.2.2,0,0,0-.181.052c.008.04.02.078.029.115.033.161-.044.231-.34.35-.156.062-.529.2-.825.327-.191.076-.367.16-.474-.03a.244.244,0,0,0-.038-.084.134.134,0,0,0-.161.075c.081.237.221.578.366.926.041.012.149-.018.168-.067-.01-.034-.013-.043-.023-.079-.062-.194.078-.267.318-.361.06-.022.165-.071.289-.119l.48,1.029c-.1.056-.186.11-.278.16-.186.1-.355.2-.474.016a.352.352,0,0,1-.044-.068c-.064-.015-.156.036-.161.084.114.232.279.557.469.882a.181.181,0,0,0,.155-.089.5.5,0,0,1-.03-.072c-.082-.183.048-.273.276-.4.139-.067.575-.3.783-.413.315-.177.375-.177.491-.025.013.023.033.049.053.078a.2.2,0,0,0,.155-.091A9.431,9.431,0,0,1,81.266,615.744Z" transform="translate(-77.842 -595.525)" fill="#fff"/>
                <path id="Path_574" data-name="Path 574" d="M189.051,533.2a2.406,2.406,0,0,0-.162.235,3.383,3.383,0,0,1-.725-.437,1.179,1.179,0,0,1-.531-1.038,1.129,1.129,0,0,1,.683-.984,1.238,1.238,0,0,1,1.245.249,2.836,2.836,0,0,1,.558.543c-.108.154-.221.311-.33.5-.056.012-.149-.026-.16-.074a.809.809,0,0,0,.1-.364.646.646,0,0,0-.275-.446.848.848,0,0,0-1.256.311.8.8,0,0,0,.1,1.145,1.243,1.243,0,0,0,.157.128c.125.088.2.072.288-.023.041-.048.064-.085.122-.148.1-.132.113-.14,0-.272-.057-.059-.094-.1-.122-.135a.141.141,0,0,1,.133-.135,7.948,7.948,0,0,0,.748.6c.011.043-.058.155-.106.155a.85.85,0,0,1-.084-.039c-.093-.047-.135-.071-.247.079C189.106,533.138,189.072,533.17,189.051,533.2Z" transform="translate(-165.002 -528.67)" fill="#fff"/>
                <path id="Path_575" data-name="Path 575" d="M84.145,553.31a.191.191,0,0,1-.161-.079.139.139,0,0,0,.026-.067c.07-.171.064-.257-.286-.445-.259-.14-.571-.306-.764-.414-.231-.131-.359-.218-.482-.026-.019.034-.032.051-.044.071a.215.215,0,0,1-.157-.082,15.954,15.954,0,0,1,.928-1.6c.132.069.365.192.486.263a.187.187,0,0,1-.076.188.959.959,0,0,0-.192-.055.291.291,0,0,0-.32.132c-.1.146-.205.346-.256.434s-.019.114.037.143.488.284.557.324c.3-.531.3-.526.312-.539a.284.284,0,0,1,.168.114l-.3.528.368.217c.282.169.32.11.452-.108.047-.072.082-.138.11-.18a.387.387,0,0,0-.063-.468c-.045-.059-.067-.085-.084-.111a.155.155,0,0,1,.138-.15,4.6,4.6,0,0,1,.456.419A12.516,12.516,0,0,0,84.145,553.31Z" transform="translate(-80.678 -544.495)" fill="#fff"/>
                <path id="Path_576" data-name="Path 576" d="M180.187,647.347a.184.184,0,0,1,.1.152c-.027.018-.031.023-.055.038-.146.112-.179.2.024.535.156.254.327.555.437.749.141.223.206.369.409.261.036-.021.052-.026.072-.038a.217.217,0,0,1,.092.157,16.467,16.467,0,0,1-1.613.9c-.077-.13-.206-.346-.282-.475a.178.178,0,0,1,.164-.121.955.955,0,0,0,.13.138.276.276,0,0,0,.337.055,3.331,3.331,0,0,0,.442-.244c.088-.048.075-.087.046-.143s-.276-.5-.313-.555l-.537.3a.263.263,0,0,1-.092-.187l.524-.3-.208-.372c-.16-.3-.224-.265-.442-.146a1.6,1.6,0,0,0-.187.108.383.383,0,0,0-.185.435,1.317,1.317,0,0,0,.015.138.165.165,0,0,1-.2.057,3.938,3.938,0,0,1-.18-.593A14.256,14.256,0,0,0,180.187,647.347Z" transform="translate(-157.844 -621.878)" fill="#fff"/>
                <path id="Path_577" data-name="Path 577" d="M213.77,571.238c.609-.384.675-.441,1.158-.733.174-.105.245-.146.307.011a.432.432,0,0,1,.027.088.134.134,0,0,0,.166-.051c-.078-.318-.162-.64-.275-.979a.134.134,0,0,0-.166.043.7.7,0,0,1,.019.113c.018.177-.029.233-.242.38-.117.083-1.474.929-1.5.951a.053.053,0,0,0-.019.074c.014.022.127.206.191.281.557.076,1.365.217,1.686.276s.379.135.392.223a.556.556,0,0,1,.015.111c.052.036.154.028.177-.018-.033-.248-.089-.6-.138-.833a.132.132,0,0,0-.176.02.511.511,0,0,1,.015.092c0,.117,0,.188-.27.156C214.724,571.387,214.2,571.308,213.77,571.238Z" transform="translate(-185.497 -559.618)" fill="#fff"/>
                <path id="Path_578" data-name="Path 578" d="M212.893,609.452c.712-.034.8-.046,1.365-.057.2-.008.287-.006.262.16a.579.579,0,0,0-.018.092.144.144,0,0,0,.17.041c.089-.312.17-.641.253-.991-.035-.064-.14-.055-.177-.041a.591.591,0,0,1-.033.109c-.074.159-.149.188-.4.208-.142.008-1.741.074-1.777.08a.059.059,0,0,0-.047.061c.006.017.011.237.015.338.455.335,1.084.859,1.337,1.069s.264.3.231.389a.492.492,0,0,1-.043.105c.028.055.126.1.166.066.093-.225.218-.567.286-.79a.136.136,0,0,0-.16-.07c-.014.036-.023.065-.034.093-.052.1-.093.161-.307,0C213.638,610.058,213.229,609.725,212.893,609.452Z" transform="translate(-184.896 -590.902)" fill="#fff"/>
                <path id="Path_579" data-name="Path 579" d="M192.327,642.013c.617.357.694.391,1.177.69.17.1.238.143.128.271-.026.03-.046.046-.061.068,0,.066.073.135.113.128.252-.22.5-.448.754-.7.008-.079-.082-.132-.121-.132a.568.568,0,0,1-.094.07c-.141.1-.226.085-.445-.04-.145-.08-1.494-.862-1.531-.877a.055.055,0,0,0-.071.021c-.006.017-.115.207-.167.292.192.518.438,1.3.534,1.618s.061.391-.011.45a.459.459,0,0,1-.1.065c0,.061.054.152.1.142.2-.142.49-.351.677-.509a.127.127,0,0,0-.1-.142.606.606,0,0,1-.078.059c-.1.057-.17.081-.263-.169C192.634,642.927,192.465,642.421,192.327,642.013Z" transform="translate(-168.505 -617.188)" fill="#fff"/>
                <g id="Group_234" data-name="Group 234" transform="translate(17.926 26.643)">
                  <path id="Path_580" data-name="Path 580" d="M166.277,655.292c-.146-.4-.386-1.065-.44-1.226-.107-.308-.162-.372-.35-.341-.036.007-.079.016-.115.024a.175.175,0,0,1-.049-.172c.313-.1.656-.223.939-.345a.234.234,0,0,1,.07.17.311.311,0,0,0-.085.042c-.158.088-.171.16-.047.5.085.22.259.67.312.82.127.34.158.387.342.334a.388.388,0,0,1,.09-.018c.046.012.072.125.066.158a9.681,9.681,0,0,1-.945.344c-.089.034-.2.063-.292.088a.569.569,0,0,1-.769-.4.561.561,0,0,1,.265-.646,6.348,6.348,0,0,0-.6-.427c-.227-.114-.3-.15-.455-.128a.438.438,0,0,0-.1.016.243.243,0,0,1-.041-.172c.047-.008.33-.067.589-.14.137.086.89.571,1.043.672l-.027.1a.426.426,0,0,0-.282.27.636.636,0,0,0,.028.32.454.454,0,0,0,.2.253.528.528,0,0,0,.34.021,1.19,1.19,0,0,0,.207-.071A1.065,1.065,0,0,0,166.277,655.292Z" transform="translate(-164.069 -653.233)" fill="#fff"/>
                </g>
                <path id="Path_581" data-name="Path 581" d="M122.785,652.13c-.077.028-.077.132-.072.159a.343.343,0,0,1,.072.038c.152.073.122.118-.033.288a1.634,1.634,0,0,0-.149.172c-.1-.047-.594-.232-.694-.268a2.309,2.309,0,0,1,.012-.243c0-.158,0-.281.162-.22a.2.2,0,0,1,.071.029.144.144,0,0,0,.067-.169c-.135-.049-.443-.181-.832-.365a.151.151,0,0,0-.093.156.511.511,0,0,1,.1.061c.185.115.138.3.135.452s-.059,1.741-.062,1.777.012.034.039.041l.285-.009c.076-.089.926-1.03,1.145-1.272.239-.254.313-.246.414-.24a.575.575,0,0,1,.1.011.128.128,0,0,0,.04-.17C123.249,652.283,122.872,652.161,122.785,652.13Zm-.917,1.5.035-.924.576.211Z" transform="translate(-111.906 -625.243)" fill="#fff"/>
                <path id="Path_582" data-name="Path 582" d="M77.639,602.424a.138.138,0,0,0-.171.033c0,.036,0,.026,0,.076.02.169-.029.169-.259.133-.133-.025-.175-.025-.221-.034-.024-.1-.139-.627-.156-.721l.208-.13c.128-.082.223-.147.273.021.01.038.01.052.016.075a.14.14,0,0,0,.172-.042c-.028-.136-.087-.457-.144-.9a.162.162,0,0,0-.184.012.936.936,0,0,1,.005.123c.006.222-.176.284-.3.359s-1.493.9-1.527.921-.022.024-.008.053.13.189.166.234c.11.011,1.355.211,1.686.262s.377.127.431.209c.019.041.033.078.044.1a.134.134,0,0,0,.164-.059C77.8,603.054,77.664,602.537,77.639,602.424Zm-1.764.055.8-.476.129.6Z" transform="translate(-75.121 -584.713)" fill="#fff"/>
                <path id="Path_583" data-name="Path 583" d="M215.524,586.16a.126.126,0,0,1-.179.008c-.026-.364-.029-.534-.066-.834a.126.126,0,0,1,.181-.025c.005.038.005.062.01.091.029.124.042.192.384.227.225.026.847.055.972.049.219,0,.442.011.422-.224,0-.044,0-.044,0-.092a.141.141,0,0,1,.181-.015c.03.3.044.508.052.823a.869.869,0,0,0-.4.109c-.223.11-.859.394-1.13.547.168.094,1.034.5,1.088.522a1.475,1.475,0,0,0,.438.162c-.008.224-.035.559-.053.813a.146.146,0,0,1-.188-.027.336.336,0,0,0,.008-.089c-.008-.123-.027-.2-.294-.2-.3,0-.765-.007-1.022.01-.306.023-.431.035-.459.171-.01.076-.01.077-.019.134a.144.144,0,0,1-.178-.022c.051-.5.063-.659.077-.937a.188.188,0,0,1,.179.007.516.516,0,0,0,0,.083c.008.112.008.176.349.172.308-.006,1-.017,1.184-.029-.2-.105-.838-.383-1.156-.548s-.451-.215-.564-.264a.132.132,0,0,1,0-.136,4.109,4.109,0,0,0,.567-.235c.282-.141,1.017-.462,1.147-.516-.259-.014-.887-.026-1.093-.029-.241-.005-.443-.009-.435.177" transform="translate(-187.122 -572.202)" fill="#fff"/>
                <path id="Path_584" data-name="Path 584" d="M132.747,658.126a.557.557,0,0,1-.122.214.431.431,0,0,1-.377.085c-.05-.007-.151-.027-.278-.045,0,0,.2-1.021.246-1.264.065-.353.109-.4.291-.4.022,0,.057.008.095.008a.183.183,0,0,0,.022-.171c-.286-.048-.741-.139-.988-.2a.179.179,0,0,0-.051.17c.041.01.076.029.107.039.181.07.186.16.128.47-.033.169-.253,1.255-.253,1.255l-.361-.072a.3.3,0,0,1-.208-.274.566.566,0,0,1,.006-.177.147.147,0,0,0-.182-.022c-.012.083-.095.472-.118.581a13.993,13.993,0,0,0,1.988.383c.022-.027.207-.467.233-.516A.184.184,0,0,0,132.747,658.126Z" transform="translate(-119.438 -629.093)" fill="#fff"/>
                <path id="Path_585" data-name="Path 585" d="M108.261,649.178a.674.674,0,0,1-.187.16.455.455,0,0,1-.389-.051c-.045-.026-.133-.084-.237-.143,0,0,.544-.885.665-1.087.19-.312.24-.347.41-.273a.336.336,0,0,1,.092.041.212.212,0,0,0,.082-.157c-.253-.142-.649-.386-.851-.532-.058.014-.121.1-.109.146.032.027.062.048.09.071.132.124.107.214-.053.49-.1.145-.682,1.084-.682,1.084l-.309-.2a.293.293,0,0,1-.1-.325.586.586,0,0,1,.064-.164.147.147,0,0,0-.154-.089c-.048.077-.254.412-.321.5A13.375,13.375,0,0,0,108,649.713c.029-.02.36-.367.4-.4A.175.175,0,0,0,108.261,649.178Z" transform="translate(-99.883 -621.71)" fill="#fff"/>
                <path id="Path_586" data-name="Path 586" d="M76.217,590.221a.371.371,0,0,1-.011.111c-.014.183-.048.287-.352.3-.066.007-.308.007-.383.012,0,0-.012-.594-.017-.6a.3.3,0,0,0-.22,0l.013.611c-.071,0-.6.024-.668.024s-.106-.012-.112-.109a3.914,3.914,0,0,1,0-.443c.024-.34.45-.406.569-.425a.17.17,0,0,0-.026-.209c-.179,0-.569.062-.738.069a15.175,15.175,0,0,0,.046,1.858.191.191,0,0,0,.173-.012c0-.017,0-.041,0-.08.006-.225.171-.225.427-.238.169-.012.527-.017.883-.043.4-.032.432.034.458.213.006.029.006.035.014.073a.2.2,0,0,0,.174-.018c-.034-.346-.048-.76-.053-1.088A.227.227,0,0,0,76.217,590.221Z" transform="translate(-74.26 -575.573)" fill="#fff"/>
                <path id="Path_587" data-name="Path 587" d="M112.572,542.673c-.176.039-.233.343-.253.454s-.051.318-.051.318c-.02.027-.06.029-.118.02-.1-.02-.173-.16-.189-.268a.953.953,0,0,1-.026-.209c.037.013.079.028.1.011.074-.038.1-.135.091-.273a.212.212,0,0,0-.087-.152.145.145,0,0,0-.1,0,.178.178,0,0,0,.018-.108.136.136,0,0,0-.071-.085.358.358,0,0,0-.164-.007l-.021.005a.243.243,0,0,0-.154.057.1.1,0,0,0-.042.095.2.2,0,0,0,.052.1.136.136,0,0,0-.1.041.182.182,0,0,0-.039.171c.03.134.09.214.16.229a.116.116,0,0,0,.1-.043c.01.052.023.115.036.211a.477.477,0,0,1-.095.334.128.128,0,0,1-.1.016c-.008-.012-.16-.276-.16-.276-.138-.2-.239-.36-.377-.36a.211.211,0,0,0-.152.082.278.278,0,0,0,.045.334.249.249,0,0,0,.266.073,3.027,3.027,0,0,1,.231.514c.043.132.117.332.155.473s.169.2.33.247c0,.014.069,1.171.43,3.485.021.084.233.107.325.079.11-.02.277-.09.254-.225-.371-2.332-.61-3.454-.606-3.4a.4.4,0,0,0,.245-.337c0-.121.009-.339,0-.554a2.222,2.222,0,0,1,.06-.533.208.208,0,0,0,.208-.13.288.288,0,0,0-.02-.322A.194.194,0,0,0,112.572,542.673Z" transform="translate(-103.509 -537.851)" fill="#fff"/>
                <path id="Path_588" data-name="Path 588" d="M118.161,583.857a.743.743,0,0,0,.682.2.728.728,0,0,0,.6-.4c.1.076.272.931-.464,1.035A.718.718,0,0,1,118.161,583.857Z" transform="translate(-109.393 -570.909)" fill="#fff"/>
                <path id="Path_589" data-name="Path 589" d="M117.456,572.8a.216.216,0,0,0-.15-.091c.048-.074.063-.082.1-.149a.42.42,0,0,0-.014-.339c-.037-.092-.123-.1-.2-.116a.421.421,0,0,0,.04-.112.239.239,0,0,0-.062-.242c-.08-.11-.363-.12-.4-.065a.642.642,0,0,1-.456.271.838.838,0,0,1-.53-.086c-.142-.071-.191-.083-.276-.014a.493.493,0,0,0-.155.379c0,.169.124.237.136.329.029.144-.066.219-.038.334s.119.159.153.245,0,.156.009.276.127.187.154.258-.005.208.053.26c.064.076.134.089.267.112a1.479,1.479,0,0,0,.818-.092.842.842,0,0,0,.474-.387.345.345,0,0,0-.057-.306.283.283,0,0,0,.135-.172A.465.465,0,0,0,117.456,572.8Zm-.744.557c-.029.033-.127.028-.149.033,0,.028.053.118.026.132s-.147.051-.183.019-.023-.078-.034-.12a.231.231,0,0,1-.144,0,.217.217,0,0,1-.067-.213c.03-.038.083-.019.145-.031-.019-.043-.038-.116-.019-.141s.147-.039.175-.014.026.09.043.128c.025-.006.134-.033.171,0S116.759,573.317,116.712,573.356Z" transform="translate(-107.158 -561.292)" fill="#fff"/>
                <path id="Path_590" data-name="Path 590" d="M126.039,543.955a2.705,2.705,0,0,1,.253-.853c.015-.043-.077-.135-.1-.138a11.918,11.918,0,0,0-3.311,1.37c-.284.177-.072.82.135,1.3.647,1.57,1.412,1.35,1.681,2.584.086.4.445,1.907.513,2.1a.916.916,0,0,0,.954.626A49.172,49.172,0,0,1,126.039,543.955Zm-1.892,1.27c-.038.19-.232.621-.342.6-.137-.02-.238-.514-.235-.708.01-.124.028-.185.083-.2s.108.157.121.4h.133c.045-.26.163-.359.2-.338S124.171,545.106,124.147,545.225Zm.637-1.3c.027-.107.053-.161.1-.155s.075.155.051.372l.117.018c.081-.229.2-.293.229-.276.043.034.039.122,0,.226-.063.164-.3.524-.389.488C124.772,544.565,124.747,544.1,124.784,543.925Zm.63,2.324c-.075.195-.329.655-.447.618-.143-.044-.205-.591-.181-.806.028-.131.054-.2.115-.2s.1.184.089.445l.146.015c.077-.279.22-.369.265-.35C125.45,546.011,125.455,546.114,125.414,546.25Z" transform="translate(-113.064 -538.331)" fill="#fff"/>
                <path id="Path_591" data-name="Path 591" d="M164.115,544.447a11.638,11.638,0,0,0-3.451-1.4c-.028,0-.115.087-.1.136a2.909,2.909,0,0,1,.249.837,50.123,50.123,0,0,1-.122,6.994.912.912,0,0,0,.95-.626c.084-.192.39-1.707.5-2.1.267-.987,1.5-1.4,1.829-2.474C164.138,545.262,164.388,544.614,164.115,544.447Zm-2.58-.493c.026-.018.161.046.24.276l.113-.018c-.024-.217.02-.366.051-.371.053-.007.078.047.1.154.036.173.019.639-.1.674-.09.036-.344-.325-.4-.488C161.491,544.076,161.488,543.988,161.535,543.954Zm.422,3.3c-.119.033-.392-.425-.453-.622-.043-.13-.039-.229.011-.267s.2.071.278.345l.136-.011c-.007-.263.055-.447.1-.449s.092.071.114.2C162.17,546.661,162.1,547.21,161.957,547.252Zm1.2-1.278c-.105.019-.3-.411-.334-.6-.024-.121-.013-.215.035-.244s.161.08.205.344h.125c.021-.239.088-.4.123-.4.056.011.078.071.087.193C163.4,545.461,163.3,545.947,163.158,545.974Z" transform="translate(-143.336 -538.4)" fill="#fff"/>
              </g>
              <path id="Path_592" data-name="Path 592" d="M153.454,530.186a.45.45,0,0,0-.285-.422V529.7a.693.693,0,0,1,.438.085.356.356,0,0,0,.008.119c.211.514-.133.686-.133,1.067a1.407,1.407,0,0,0-.749-.254l-.209-.529a2.093,2.093,0,0,1,.291-.036A1.709,1.709,0,0,1,153.454,530.186Z" transform="translate(-136.902 -526.831)" fill="#fff"/>
              <path id="Path_593" data-name="Path 593" d="M141.366,517h0a4.053,4.053,0,0,0-1.591.243,4.765,4.765,0,0,0-.444-1.176c-.038-.041-.137-.156-.162-.174s-.039-.069,0-.081a.3.3,0,0,1,.162-.012.179.179,0,0,1,.152.161l.029.012a.2.2,0,0,1,.011-.15c.019-.028.094-.065.181.034a.283.283,0,0,1,.079.14c.025.058.04.112-.009.148a.135.135,0,0,1-.129-.008v.039a.476.476,0,0,0,.423.174c.229-.038.28-.163.266-.316-.008,0-.009-.009-.019-.014a.1.1,0,0,1-.067.05c-.029.006-.11.006-.162-.107a.216.216,0,0,1-.02-.179c.02-.025.075-.044.181-.016,0,0,0-.015,0-.028a.157.157,0,0,1-.132-.164c.006-.044.024-.106.169-.132s.208.038.223.08a.2.2,0,0,1-.073.188c0,.009.023.016.027.023a.165.165,0,0,1,.055-.042.137.137,0,0,1,.065-.025c.041,0,.09.02.12.141.038.161-.063.194-.094.194a.3.3,0,0,1-.1-.028c-.01,0-.01.007-.017.013a.414.414,0,0,0,.437.264.352.352,0,0,0,.345-.38c0-.005-.007-.009-.009-.014a.16.16,0,0,1-.113.062c-.064,0-.113-.057-.143-.153s.022-.17.07-.187a.126.126,0,0,1,.137.029.057.057,0,0,1,.017-.021.192.192,0,0,1-.065-.144c.012-.06.079-.105.207-.105h0c.121,0,.192.045.2.105s-.02.1-.059.144c0,.009.008.019.014.021a.132.132,0,0,1,.141-.029c.047.017.089.08.058.187s-.065.153-.13.153a.118.118,0,0,1-.109-.062.052.052,0,0,0-.023.014.36.36,0,0,0,.346.38.4.4,0,0,0,.433-.264.018.018,0,0,0-.005-.013.343.343,0,0,1-.113.028c-.03,0-.123-.033-.086-.194.021-.121.069-.141.12-.141a.132.132,0,0,1,.06.025.206.206,0,0,1,.059.042c0-.007.018-.014.022-.023a.191.191,0,0,1-.065-.188c.008-.042.065-.109.22-.08.136.026.159.088.166.132a.159.159,0,0,1-.137.164.042.042,0,0,0,.012.028c.1-.028.153-.009.172.016s.028.089-.019.179a.149.149,0,0,1-.162.107.191.191,0,0,1-.07-.05c-.008,0-.014.011-.014.014-.016.152.039.278.259.316a.464.464,0,0,0,.425-.174l0-.039a.137.137,0,0,1-.13.008c-.052-.036-.03-.09-.012-.148a.328.328,0,0,1,.086-.14c.089-.1.158-.062.177-.034a.243.243,0,0,1,.016.15.289.289,0,0,1,.031-.012.188.188,0,0,1,.15-.161.3.3,0,0,1,.162.012c.043.012.022.058,0,.081s-.126.133-.162.174a4.862,4.862,0,0,0-.448,1.176,4.05,4.05,0,0,0-1.6-.243h0" transform="translate(-126.194 -515.347)" fill="#fff"/>
              <path id="Path_594" data-name="Path 594" d="M143.723,528.208c.146-.018.263-.214.263-.214h.146s.082.19.242.206a4.233,4.233,0,0,1,1.2.254c.135-.188.086-.431-.232-.628a1.994,1.994,0,0,0-.962-.2c-.309.319-.634-.073-.977.054.136-.143.291-.305.448-.305a.676.676,0,0,0,.166.081.391.391,0,0,0,.341-.1c.028-.042-.156-1.181-.156-1.181a2.279,2.279,0,0,1,.905-.284.54.54,0,0,1,.5.25c.178-.779-.816-.738-1.536-.738-1.939,0-1.442.39-1.38,1.052,0,.187-.281.34,0,.987a1.579,1.579,0,0,1,.1.375.474.474,0,0,0-.223.634,3.445,3.445,0,0,1,1.151-.246m.218-2.021c-.065.3-.122.592-.122.592a1.222,1.222,0,0,0-.357-.054,5.421,5.421,0,0,0-.618,0,.389.389,0,0,1,.366-.376v-.06l-.374-.087C143.109,525.576,143.819,526.117,143.941,526.188Z" transform="translate(-128.896 -523.398)" fill="#fff"/>
              <path id="Path_595" data-name="Path 595" d="M145.223,541.213a6.63,6.63,0,0,0-2.76.018c-.166.679-.38,2.053-.049,2.484a1.439,1.439,0,0,0,1.125.2c.127-.078.138-.714.156-.982.037-.4.049-.46.083-.465h.173c.065.049.046,1.319.225,1.436a1.372,1.372,0,0,0,1.221-.19A5.159,5.159,0,0,0,145.223,541.213Zm-1.372.579c-.445,0-.6-.132-.6-.389a1.3,1.3,0,0,0,.6.076,1.169,1.169,0,0,0,.564-.076C144.415,541.66,144.269,541.792,143.851,541.792Z" transform="translate(-128.671 -535.941)" fill="#fff"/>
            </g>
            <path id="Path_596" data-name="Path 596" d="M128.49,591.092h0a22.3,22.3,0,0,0-3.831.311,7.736,7.736,0,0,0-1.155-2.015c-.09-.1-.343-.353-.4-.4s-.1-.147.005-.179a.849.849,0,0,1,.391-.025.41.41,0,0,1,.368.362c.006,0,.07.025.082.025a.425.425,0,0,1,.026-.333c.051-.066.218-.144.437.067a.718.718,0,0,1,.207.319c.048.125.087.248-.029.328a.353.353,0,0,1-.314-.019l.009.08a1.15,1.15,0,0,0,1.033.4c.547-.091.673-.37.639-.713-.01,0-.017-.012-.031-.02a.606.606,0,0,1-.181.11.377.377,0,0,1-.4-.239c-.1-.2-.086-.335-.041-.391s.184-.095.438-.035c0-.009.014-.042.02-.056-.281-.083-.343-.26-.335-.36s.067-.248.412-.306c.379-.064.514.085.55.185a.438.438,0,0,1-.17.414c.012.014.044.038.053.048.062-.046.091-.071.134-.1a.34.34,0,0,1,.162-.056c.109,0,.227.043.291.317.082.355-.154.422-.225.424a.709.709,0,0,1-.259-.06.124.124,0,0,0-.029.04,1.014,1.014,0,0,0,1.062.573.822.822,0,0,0,.851-.843c-.012-.007-.027-.016-.048-.025a.322.322,0,0,1-.262.13c-.163,0-.288-.121-.34-.324-.067-.247.034-.377.158-.423a.356.356,0,0,1,.34.078c.012-.015.029-.033.04-.047-.1-.107-.186-.221-.162-.33.026-.133.2-.225.5-.225h0c.313,0,.468.091.5.225.027.109-.063.223-.159.33a.305.305,0,0,0,.042.047.337.337,0,0,1,.332-.078c.126.045.223.176.161.423-.054.2-.18.324-.339.324a.315.315,0,0,1-.256-.13.179.179,0,0,0-.042.025.807.807,0,0,0,.836.843,1.015,1.015,0,0,0,1.065-.573.319.319,0,0,0-.032-.04.679.679,0,0,1-.262.06c-.068,0-.3-.07-.219-.424.064-.274.179-.317.29-.317a.315.315,0,0,1,.161.056c.041.026.071.051.139.1.008-.01.039-.034.048-.048a.433.433,0,0,1-.167-.414c.034-.1.172-.249.548-.185.342.058.4.2.412.306s-.059.277-.332.36a.374.374,0,0,1,.02.056c.244-.059.385-.023.45.035.043.056.054.2-.054.391a.38.38,0,0,1-.4.239.433.433,0,0,1-.174-.11.228.228,0,0,1-.038.02c-.037.343.092.622.655.713a1.157,1.157,0,0,0,1.033-.4l0-.08a.349.349,0,0,1-.312.019c-.121-.081-.076-.2-.027-.328a.854.854,0,0,1,.191-.319c.23-.211.4-.133.446-.067a.438.438,0,0,1,.036.333c.006,0,.064-.025.071-.025a.412.412,0,0,1,.372-.362.833.833,0,0,1,.386.025c.1.032.058.134.01.179s-.313.3-.4.4a7.7,7.7,0,0,0-1.154,2.015,22.517,22.517,0,0,0-3.843-.311Z" transform="translate(-113.31 -573.327)" fill="#fff"/>
            <g id="Group_237" data-name="Group 237" transform="translate(11.441 18.273)">
              <path id="Path_597" data-name="Path 597" d="M144.243,637.4c.1,0,.138-.062.191-.128l-.271-.015C144.163,637.35,144.2,637.4,144.243,637.4Z" transform="translate(-141.651 -631.199)" fill="#fff"/>
              <path id="Path_598" data-name="Path 598" d="M143.672,624.173l-.3-.012c0,.087.037.143.083.143A.26.26,0,0,0,143.672,624.173Z" transform="translate(-141.016 -620.714)" fill="#fff"/>
              <path id="Path_599" data-name="Path 599" d="M155.332,625.821h.071a.326.326,0,0,0,.353-.345.348.348,0,0,0-.373-.335c-.434,0-.406.47-.865.549.112-.005.165-.01.247-.01C155.082,625.68,155.226,625.716,155.332,625.821Z" transform="translate(-149.938 -621.499)" fill="#fff"/>
              <path id="Path_600" data-name="Path 600" d="M135.318,606.892a22.023,22.023,0,0,0-3.74.281c.009.344.107,3.2.212,5.412.131,2.664,1.523,3.481,3.529,3.481,1.875,0,3.391-.428,3.537-3.481.108-2.215.2-5.068.215-5.412A22.277,22.277,0,0,0,135.318,606.892Zm.357.646c.141,0,.164.082.164.123h.11c0-.041.02-.123.166-.123.177,0,.189.1.189.135,0,.206-.288.259-.383.326h-.053c-.1-.067-.386-.12-.386-.326C135.482,607.641,135.49,607.539,135.675,607.539Zm-1.948.174a.784.784,0,0,1,.137.01l-.072-.4.052,0a.5.5,0,0,1,.161.213h.032a.736.736,0,0,1,.074-.206h.07a1.491,1.491,0,0,1,.059.211h.037a.577.577,0,0,1,.157-.2h.059l-.059.315c.138,0,.437.474.437.88.142-.022.73-.059.786-.059a.7.7,0,0,1-.718-.809,1.052,1.052,0,0,1,.117.017.352.352,0,0,1,.323.305.178.178,0,0,1-.1.16c0,.092.156.227.442.227.623,0,.569-.693,1.375-.693.3,0,.693.11.693.6s-.563.556-.688.556c.09.075-.033.289.247.289.264,0,.579-.085.683-.085.222,0,.075.251.26.435.129.124.143.161.143.2a.151.151,0,0,1-.1.135c0-.017.012-.049,0-.061H138.3c-.015,0-.063,0-.09-.083-.064.016-.083.045-.083.065,0,.042.013.042.013.078,0,.067-.073.1-.1.1a.078.078,0,0,0-.01.029.038.038,0,0,0,.021.033.108.108,0,0,1-.1-.1c0-.034.011-.052.011-.073a.038.038,0,0,0-.028-.036.048.048,0,0,0-.041.014c0,.007-.013.115-.093.115a.766.766,0,0,1-.085-.014c-.011,0-.019.022-.019.034s0,.037,0,.037a.116.116,0,0,1-.052-.094c0-.1.081-.079.081-.128,0-.026-.017-.031-.037-.031a.174.174,0,0,1-.086.018c-.021,0-.045-.005-.051-.018a.121.121,0,0,0-.043.082.2.2,0,0,1-.023-.1c0-.072.08-.135.185-.135.043,0,.067.008.107.008a.178.178,0,0,0,.154-.142.029.029,0,0,0-.009-.019,11.21,11.21,0,0,1-1.232.192c-.686,0-.144-.862-.708-.862-.52,0-.68.585-1.258.585a2.143,2.143,0,0,1-.423-.047c-.01.189.01.256-.161.267-.137.009-.569.044-1.3.044-.049.243-.117.278-.216.278a.229.229,0,0,1-.133-.042c.049-.009.108-.012.108-.033a.061.061,0,0,1-.043-.05c0-.02,0-.037.034-.067-.012,0-.027-.007-.039-.007-.1,0-.18.148-.295.148a.108.108,0,0,1-.1-.1c-.024,0-.061.044-.091.07a.132.132,0,0,1,.127-.168c.072,0,.1-.008.1-.035a.034.034,0,0,0-.01-.029.274.274,0,0,1-.085.008c-.067,0-.117-.027-.117-.068,0-.01,0-.022-.011-.022a.131.131,0,0,0-.08.055.147.147,0,0,1,.136-.158.2.2,0,0,1,.157.042.076.076,0,0,0,.015-.042c0-.041-.038-.054-.117-.082-.055-.016-.026-.079-.081-.079a.253.253,0,0,0-.1.044.244.244,0,0,1,.222-.183c.186,0,.2.234.467.234a5.235,5.235,0,0,0,.961-.083.355.355,0,0,1-.145-.26,1.054,1.054,0,0,1,.158-.376.184.184,0,0,1-.066.01c-.044,0-.11-.01-.11-.1a.215.215,0,0,1,.064-.154h.09c0,.065.043.083.21.083s.213-.063.213-.161c0-.2-.086-.234-.264-.234-.134,0-.149.014-.149.068h-.071a.536.536,0,0,1-.093-.244C133.494,607.761,133.537,607.712,133.727,607.712Zm1.535,2.165a.307.307,0,0,0-.054-.01c-.138-.009-.121.254-.316.117-.033.017-.02.062-.02.083a.1.1,0,0,1-.039-.141c.043-.047.149-.081.149-.109s0-.018-.041-.028c-.069,0-.136.116-.2.033l-.013-.024a.1.1,0,0,0-.077.036.136.136,0,0,1,.1-.131c.055-.018.157-.02.157-.044a.025.025,0,0,0-.006-.025c-.034-.053-.125.03-.142-.057a.133.133,0,0,0-.106.038c0-.072.086-.142.185-.147s.239.1.363.114c.051,0,.157.011.157.011.048,0,.092,0,.144,0,.084,0,.066-.044.038-.154a.449.449,0,0,1,.167-.483.569.569,0,0,1,.391-.063.261.261,0,0,1,.061.156,1.065,1.065,0,0,0,.024.261.307.307,0,0,0-.272.12c-.053.087.04.184.027.281s-.051.092-.109.1c-.036.005-.169.005-.343,0l.012.049a.154.154,0,0,1-.1.134.337.337,0,0,1-.2.031.109.109,0,0,0,.072-.048C135.185,609.916,135.262,609.877,135.262,609.877Zm.413.288c.141,0,.164.076.164.128h.11c0-.052.02-.128.166-.128.177,0,.189.1.189.141,0,.195-.288.253-.383.326h-.053c-.1-.072-.386-.131-.386-.326C135.482,610.266,135.49,610.166,135.675,610.166Zm-2.215,1.547a.649.649,0,0,1-.154-.114c-.158-.154-.207-.408-.325-.557s-.193-.253-.218-.281c-.095.008-.13.009-.186.009a.21.21,0,0,1-.247-.161.238.238,0,0,0,.082.031c.016-.039.038-.059.065-.059.053,0,.043.025.084.025a.054.054,0,0,0,.022,0,.128.128,0,0,0,0-.02c0-.08-.059-.1-.126-.1a.129.129,0,0,1-.136-.13c0-.006,0-.019-.059-.019h-.057a.272.272,0,0,1,.194-.081c.1,0,.185.118.206.118s.033-.031.033-.051-.054-.046-.087-.083a.065.065,0,0,1-.026-.051c0-.013.01-.026.012-.034-.024-.026-.047-.033-.112-.033a.319.319,0,0,1,.15-.05.222.222,0,0,1,.211.187c.029,0,.039-.019.039-.045s0,0,0-.028a.091.091,0,0,1,.04-.081c0-.028-.022-.048-.071-.059a.32.32,0,0,1,.077-.015.159.159,0,0,1,.159.152c0,.113-.065.186-.065.258a3.012,3.012,0,0,0,.539.8C133.451,611.343,133.316,611.573,133.46,611.713Zm-.366-1.262a.146.146,0,0,1,.076-.022c.219,0,.207.309.477.309.115,0,.115-.034.207-.034a.089.089,0,0,1,.1.086c0,.068-.061.1-.19.1C133.25,610.888,133.378,610.583,133.095,610.451Zm.076-2.617c.219,0,.207.306.477.306.115,0,.115-.033.207-.033a.087.087,0,0,1,.1.086c0,.07-.061.091-.19.091-.513,0-.385-.3-.668-.433A.267.267,0,0,1,133.171,607.834Zm-.768-.177c.1,0,.185.118.206.118s.033-.034.033-.059-.054-.044-.087-.076a.085.085,0,0,1-.026-.053c0-.014.01-.022.012-.033-.024-.027-.047-.03-.112-.03.092-.053.122-.06.15-.06a.226.226,0,0,1,.211.2c.029,0,.039-.02.039-.045s0,0,0-.033a.082.082,0,0,1,.04-.075c0-.037-.022-.051-.071-.063a.172.172,0,0,1,.077-.019.157.157,0,0,1,.159.152c0,.108-.065.192-.065.265a3.156,3.156,0,0,0,.539.8c-.059.107-.194.331-.05.469a.66.66,0,0,1-.154-.11c-.158-.158-.207-.41-.325-.558a2.9,2.9,0,0,0-.218-.274h-.186a.21.21,0,0,1-.247-.166.2.2,0,0,0,.082.032c.016-.036.038-.056.065-.056.053,0,.043.024.084.024a.074.074,0,0,0,.022,0,.1.1,0,0,0,0-.02c0-.071-.059-.087-.126-.087a.134.134,0,0,1-.136-.135c0-.012,0-.024-.059-.024h-.057A.266.266,0,0,1,132.4,607.657Zm-.226.734c.143,0,.164.081.164.126h.12c0-.044.021-.126.16-.126.184,0,.2.108.2.139,0,.2-.29.257-.4.324h-.05c-.1-.067-.393-.123-.393-.324C131.979,608.5,131.992,608.391,132.177,608.391Zm-.2,2.73c0-.029.013-.137.2-.137.143,0,.164.082.164.126h.12c0-.044.021-.126.16-.126.184,0,.2.108.2.137,0,.206-.29.258-.4.328h-.05C132.272,611.38,131.979,611.327,131.979,611.121Zm.324,1.077c.073,0,.093-.012.093-.034s0-.021,0-.023c-.035,0-.047,0-.089,0-.061,0-.108-.027-.108-.069a.017.017,0,0,0-.018-.018.137.137,0,0,0-.079.049.147.147,0,0,1,.144-.154.207.207,0,0,1,.155.044.12.12,0,0,0,.006-.044c0-.043-.031-.055-.118-.082-.043-.017-.019-.076-.076-.076a.277.277,0,0,0-.1.036.249.249,0,0,1,.22-.175c.2,0,.208.225.47.225a4.123,4.123,0,0,0,.858-.081.334.334,0,0,1-.145-.256,1.112,1.112,0,0,1,.158-.38.14.14,0,0,1-.066.014.1.1,0,0,1-.11-.1.217.217,0,0,1,.064-.151h.09c0,.062.043.078.21.078s.213-.065.213-.164c0-.187-.086-.227-.264-.227-.134,0-.149.023-.149.067h-.071a.532.532,0,0,1-.093-.247c0-.078.043-.119.233-.119a.828.828,0,0,1,.137.008l-.072-.394h.052a.479.479,0,0,1,.161.206h.032a.859.859,0,0,1,.074-.2h.07a1.533,1.533,0,0,1,.059.211l.037,0a.545.545,0,0,1,.157-.207l.059,0-.059.318c.138,0,.437.477.437.88.142-.026.73-.054.786-.054a.71.71,0,0,1-.718-.814c.053.006.078.013.117.016a.356.356,0,0,1,.323.313.172.172,0,0,1-.1.154c0,.094.156.219.442.219.623,0,.5-.687,1.307-.687.3,0,.7.111.7.606s-.5.554-.628.554c.09.074-.077.4.2.363a5.307,5.307,0,0,0,.667-.183h0c.218-.023.11.245.315.4.143.107.159.138.166.176a.135.135,0,0,1-.075.157c0-.018,0-.056-.011-.067l-.026.008c-.021,0-.067,0-.1-.075-.059.026-.077.061-.077.081.008.041.024.038.029.077.007.065-.063.1-.08.115a.055.055,0,0,0-.01.029c0,.008.01.029.019.032a.1.1,0,0,1-.11-.091.393.393,0,0,1,0-.077.043.043,0,0,0-.037-.033c-.018.007-.026.008-.029.02s0,.119-.079.129a.345.345,0,0,1-.075-.006c-.019,0-.027.031-.027.045a.21.21,0,0,1,.008.029.116.116,0,0,1-.064-.083c-.014-.106.078-.094.064-.139,0-.024-.021-.024-.045-.024a.164.164,0,0,1-.081.029.049.049,0,0,1-.051-.011c-.027.03-.029.039-.03.093a.263.263,0,0,1-.043-.1c-.012-.071.068-.151.164-.163.051-.007.068,0,.111-.007a.168.168,0,0,0,.131-.159.077.077,0,0,0-.009-.019,6.246,6.246,0,0,1-1.214.228c-.686,0-.144-.888-.708-.888-.52,0-.68.576-1.258.576a2.276,2.276,0,0,1-.423-.041c-.01.179.01.253-.161.265-.137.007-.468.044-1.2.044-.045.244-.119.28-.207.28a.3.3,0,0,1-.136-.043c.048-.01.1-.015.1-.034a.061.061,0,0,1-.007-.115.119.119,0,0,0-.037-.012c-.1,0-.174.152-.3.152a.1.1,0,0,1-.094-.1c-.025,0-.066.038-.1.068A.134.134,0,0,1,132.3,612.2Zm2.959.278a.112.112,0,0,0-.054-.012c-.138-.008-.121.252-.316.122-.033.015-.02.058-.02.073a.091.091,0,0,1-.039-.135c.043-.047.149-.084.149-.108s0-.028-.041-.028c-.069,0-.136.117-.2.031l-.013-.025c-.015-.007-.045.006-.077.033,0-.064.032-.095.1-.124s.157-.021.157-.047a.022.022,0,0,0-.006-.023c-.034-.053-.125.027-.142-.059a.175.175,0,0,0-.106.037c0-.07.086-.137.185-.143s.239.1.363.112l.157.006a1.279,1.279,0,0,0,.144,0c.084,0,.066-.034.038-.149a.444.444,0,0,1,.167-.479.589.589,0,0,1,.391-.064.254.254,0,0,1,.061.155,1.067,1.067,0,0,0,.024.261.3.3,0,0,0-.272.118c-.053.088.04.189.027.28s-.051.095-.109.1a2.989,2.989,0,0,1-.343,0l.012.049a.164.164,0,0,1-.1.137.378.378,0,0,1-.2.029.144.144,0,0,0,.072-.049C135.185,612.508,135.262,612.477,135.262,612.477Zm.413.3c.141,0,.164.085.164.13h.11c0-.045.02-.13.166-.13.177,0,.189.111.189.141,0,.207-.288.263-.383.328h-.053c-.1-.065-.386-.121-.386-.328C135.482,612.889,135.49,612.778,135.675,612.778Zm-2.013,1.546a.648.648,0,0,1-.143-.1c-.148-.15-.207-.4-.324-.539s-.19-.24-.218-.264c-.081.006-.112.019-.162.019s-.167.023-.232-.151a.255.255,0,0,0,.078.026c.012-.042.024-.062.048-.062.042,0,.016.017.055.017a.024.024,0,0,0,.023-.022c0-.057-.046-.083-.1-.083-.1,0-.121-.1-.121-.127s0-.018-.053-.018a.152.152,0,0,0-.052.006.222.222,0,0,1,.17-.1.239.239,0,0,1,.179.09c.013,0,.021-.031.021-.057s-.052-.033-.07-.054a.073.073,0,0,1-.028-.051.064.064,0,0,1,.008-.035c-.019-.026-.05-.026-.093-.026.074-.059.093-.063.126-.063a.2.2,0,0,1,.2.194.04.04,0,0,0,.04-.051c0-.023,0-.012-.009-.047a.1.1,0,0,1,.034-.08c0-.031-.027-.044-.072-.053.048-.013.052-.021.076-.021a.136.136,0,0,1,.142.136c.011.117-.044.2-.037.274a2.983,2.983,0,0,0,.537.76C133.628,613.959,133.537,614.187,133.662,614.323Zm-.385-1.249a.2.2,0,0,1,.074-.017c.2,0,.194.291.447.291.121,0,.121-.037.2-.037a.085.085,0,0,1,.095.086c0,.063-.053.094-.175.094C133.428,613.493,133.544,613.2,133.278,613.074Zm-1.087.735c0-.033.009-.137.19-.137.15,0,.174.079.174.125h.106c0-.046.026-.125.163-.125.19,0,.2.1.2.137,0,.2-.292.258-.391.327h-.056C132.487,614.067,132.191,614.008,132.191,613.809Zm3.681.828c-.045.09.041.248.061.338s-.023.1-.076.132a2.551,2.551,0,0,1-.289.073.194.194,0,0,1,.044.132c0,.1-.149.119-.216.13a.114.114,0,0,0,.053-.066c-.086-.049-.025-.1-.025-.1a.181.181,0,0,0-.053.008c-.133.019-.052.268-.263.191-.026.022-.009.06,0,.078a.09.09,0,0,1-.068-.117c.023-.06.111-.122.1-.145s-.009-.026-.039-.015c-.064.015-.091.143-.179.079l-.021-.022c-.016,0-.044.018-.067.059a.122.122,0,0,1,.062-.146c.055-.038.143-.062.14-.084a.053.053,0,0,0-.01-.02c-.046-.042-.107.05-.15-.018a.122.122,0,0,0-.09.061c-.018-.066.045-.156.141-.192s.234.039.361.024a.955.955,0,0,0,.127-.028.888.888,0,0,0,.1-.026c.082-.017.051-.05-.006-.15a.684.684,0,0,1,.181-.646.439.439,0,0,1,.341-.062.265.265,0,0,1,.065.161,2.074,2.074,0,0,0,.019.259A.267.267,0,0,0,135.871,614.638Zm2.2.224c0-.014,0-.048-.025-.061a.081.081,0,0,0-.022.012c-.026.018-.055,0-.092-.054a.119.119,0,0,0-.056.088c.011.038.021.025.03.066a.117.117,0,0,1-.057.119.149.149,0,0,0,0,.036c0,.011.013.022.018.028a.109.109,0,0,1-.111-.077.4.4,0,0,1-.009-.066c-.012-.021-.025-.017-.036-.017s-.029,0-.029.017a.1.1,0,0,1-.053.126.251.251,0,0,1-.068,0c-.013.007-.013.028-.011.041a.066.066,0,0,0,.011.026.092.092,0,0,1-.066-.07c-.036-.087.055-.113.055-.163,0-.011-.023-.016-.045-.016a.234.234,0,0,1-.089.055.057.057,0,0,1-.048-.007.144.144,0,0,0-.015.095.385.385,0,0,1-.05-.09.173.173,0,0,1,.125-.184c.044-.014.067-.01.095-.019a.157.157,0,0,0,.091-.177s-.011-.015-.011-.015a2.858,2.858,0,0,1-1.045.379c-.586,0-.1-1-.609-1-.47,0-.612.58-1.134.58a1.658,1.658,0,0,1-.381-.045c-.006.184.012.253-.152.267a6.574,6.574,0,0,1-.926.046c-.039.237-.089.275-.186.275-.054,0-.066-.025-.1-.039.044-.01.1-.016.1-.038a.068.068,0,0,1-.041-.048c0-.015-.006-.036.036-.064a.349.349,0,0,0-.036-.009c-.1,0-.17.149-.286.149a.1.1,0,0,1-.1-.1c-.019,0-.059.041-.093.066a.134.134,0,0,1,.132-.161c.07,0,.092-.005.092-.034a.117.117,0,0,0,0-.029.39.39,0,0,1-.09.007c-.057,0-.109-.024-.109-.065,0-.012,0-.016-.015-.016a.148.148,0,0,0-.078.042.141.141,0,0,1,.145-.142.188.188,0,0,1,.147.038.078.078,0,0,0,.008-.038c0-.044-.037-.055-.114-.087-.042-.016-.023-.078-.077-.078-.034,0-.069.035-.1.038a.251.251,0,0,1,.21-.165c.19,0,.173.211.432.211a1.8,1.8,0,0,0,.614-.09.329.329,0,0,1-.132-.258.985.985,0,0,1,.144-.372c-.015,0-.044,0-.071,0-.052,0-.114-.007-.114-.1a.226.226,0,0,1,.062-.155h.094c0,.065.04.081.2.081.144,0,.189-.066.189-.164,0-.192-.065-.229-.241-.229-.132,0-.149.024-.149.067h-.077a.56.56,0,0,1-.093-.239c0-.079.046-.123.242-.123h.128l-.06-.39h.042a.556.556,0,0,1,.144.211h.034a.78.78,0,0,1,.068-.2h.055a1.344,1.344,0,0,1,.061.2h.031a.712.712,0,0,1,.136-.2l.059.005-.059.315c.125,0,.4.474.4.88.125-.022.657-.055.706-.055-.38-.047-.646-.236-.646-.816l.1.023a.331.331,0,0,1,.292.308.193.193,0,0,1-.085.154c0,.094.138.224.393.224.56,0,.6-.626,1.255-.626a.52.52,0,0,1,.577.546c0,.434-.482.549-.583.549.075.071-.152.476.08.4a5.059,5.059,0,0,0,.576-.263c.189-.055.125.224.335.354.143.089.163.115.172.157A.151.151,0,0,1,138.067,614.861Zm.047-.725h-.047c-.1-.07-.391-.128-.391-.327,0-.033.006-.137.2-.137.134,0,.161.079.161.125h.117c0-.046.023-.125.156-.125.208,0,.214.1.214.137C138.52,614.008,138.214,614.067,138.114,614.137Zm.155-2.687h-.054c-.1-.07-.39-.122-.39-.328,0-.029.019-.137.2-.137.143,0,.164.082.164.126h.113c0-.044.019-.126.181-.126.186,0,.193.108.193.137C138.673,611.327,138.366,611.38,138.269,611.45Zm.038-2.6h-.051c-.1-.067-.387-.123-.387-.324,0-.031.009-.139.2-.139.139,0,.161.081.161.126h.118c0-.044.02-.126.179-.126.179,0,.192.108.192.139C138.712,608.731,138.409,608.787,138.306,608.854Z" transform="translate(-131.578 -606.892)" fill="#fff"/>
              <path id="Path_601" data-name="Path 601" d="M155.368,638.761a.285.285,0,0,0-.3-.294c-.357,0-.445.428-.857.505a1.45,1.45,0,0,1,.213-.012c.287,0,.425.038.518.142H155A.353.353,0,0,0,155.368,638.761Z" transform="translate(-149.695 -632.165)" fill="#fff"/>
              <path id="Path_602" data-name="Path 602" d="M155.332,612.779h.071a.366.366,0,0,0,.4-.352.33.33,0,0,0-.349-.34c-.41,0-.476.484-.936.562a1.512,1.512,0,0,1,.247-.015C155.082,612.633,155.226,612.674,155.332,612.779Z" transform="translate(-149.938 -611.05)" fill="#fff"/>
              <path id="Path_603" data-name="Path 603" d="M143.453,611.284a.262.262,0,0,0,.219-.127l-.3-.017C143.37,611.232,143.407,611.284,143.453,611.284Z" transform="translate(-141.016 -610.292)" fill="#fff"/>
            </g>
            <path id="Path_604" data-name="Path 604" d="M190.671,573.411a.257.257,0,0,1,.285.3c0,.3-.126.405-.264.405a.392.392,0,0,1-.426-.388C190.266,573.448,190.588,573.411,190.671,573.411Z" transform="translate(-167.111 -561.821)" fill="#fff"/>
            <path id="Path_605" data-name="Path 605" d="M179.655,573.967a.427.427,0,0,1,.31.209.259.259,0,0,1,.254-.183c.176,0,.261.144.346.327a.644.644,0,0,0,.466.418c0,.327-.1.527-.385.527a.7.7,0,0,1-.251-.045.346.346,0,0,1-.327.185.56.56,0,0,1-.339-.164.413.413,0,0,1-.322.155.467.467,0,0,1-.323-.206.674.674,0,0,1-.209.05c-.228,0-.365-.472-.365-.6a.247.247,0,0,1,.253-.258.46.46,0,0,1,.147.041.254.254,0,0,1,.239-.309.384.384,0,0,1,.244.094C179.431,574.089,179.486,573.967,179.655,573.967Z" transform="translate(-157.701 -562.266)" fill="#fff"/>
            <path id="Path_606" data-name="Path 606" d="M178.733,549.152a1.481,1.481,0,0,0-1.32,1.383,2.16,2.16,0,0,0,.059.568.171.171,0,0,1,.127-.043.318.318,0,0,1,.225.127c.014-.127.037-.295.269-.295a.286.286,0,0,1,.228.1.353.353,0,0,1,.344-.267.442.442,0,0,1,.357.232.23.23,0,0,1,.257-.216c.258,0,.344.164.446.357,0-.27.357-.36.63-.362a.475.475,0,0,1,.089,0,1.473,1.473,0,0,0-1.122-1.548c.15-1.232.07-1.332.048-1.365a.23.23,0,0,0-.153-.071l0-.176a.244.244,0,0,0,.2-.236c.005-.074-.079-.663-.079-.674a.1.1,0,0,1,.1-.107c.024,0,.564.227.641.232a.266.266,0,0,0,.255-.261.255.255,0,0,0-.214-.3c-.07,0-.539.116-.664.123a.106.106,0,0,1-.1-.123c0-.009.183-.578.193-.656a.228.228,0,0,0-.267-.223.223.223,0,0,0-.29.185c-.009.071.089.666.089.672a.109.109,0,0,1-.117.107c-.122-.023-.567-.216-.638-.217a.255.255,0,0,0-.252.255.262.262,0,0,0,.208.3c.077.005.642-.13.671-.13.066,0,.09.059.08.121,0,.009-.172.577-.178.653a.253.253,0,0,0,.17.266l-.016.176a.236.236,0,0,0-.162.046C178.828,547.815,178.766,547.907,178.733,549.152Z" transform="translate(-156.823 -539.359)" fill="#fff"/>
          </g>
        </g>
      </g>
    </g>
    <g id="Group_242" data-name="Group 242" transform="translate(69.266 534.185)">
      <path id="Path_607" data-name="Path 607" d="M316.143,633.718c0-1.264-.094-1.3-.859-1.464l-.258-.055c-.132-.093-.112-.4.036-.457.622.037,1.189.054,1.78.054s1.152-.017,1.869-.054c.148.054.166.364.036.457l-.347.055c-.788.124-.861.2-.861,1.464V636.3c0,1.837.6,3.084,2.385,3.084,1.647,0,2.362-1.246,2.362-3.062v-1.7c0-1.835-.113-2.261-.9-2.366L321,632.2a.307.307,0,0,1,.032-.457c.59.037,1.011.054,1.544.054s.931-.017,1.52-.054a.3.3,0,0,1,.014.457l-.545.055c-.478.053-.622.55-.622,2.366v1.814c0,2.347-1.082,3.575-3.414,3.575a3.635,3.635,0,0,1-2.6-.774,3.477,3.477,0,0,1-.789-2.583Z" transform="translate(-314.938 -631.393)"/>
      <path id="Path_608" data-name="Path 608" d="M384.841,634.62c0-1.835-.109-2.294-.787-2.366l-.59-.055a.308.308,0,0,1,.045-.457c.676.037,1.1.054,1.63.054s.929-.017,1.519-.054a.309.309,0,0,1,.02.457l-.551.055c-.479.053-.625.55-.625,2.366V637.7c0,.366,0,1.855.061,2.125a.37.37,0,0,1-.391.166c-.2-.256-.564-.641-1.708-1.87l-2.782-2.969c-.7-.74-1.172-1.208-1.411-1.415-.076,0-.076.206-.076.774v2.419c0,1.829.11,2.307.789,2.367l.591.053a.3.3,0,0,1-.04.458c-.678-.036-1.1-.053-1.633-.053s-.877.017-1.518.053a.306.306,0,0,1-.021-.458l.551-.053c.473-.06.62-.555.62-2.367v-3.282c0-.606-.017-.861-.385-1.137a2.272,2.272,0,0,0-.672-.255l-.278-.055c-.128-.11-.128-.389.036-.457.69.054,1.192.054,1.575.054a4.56,4.56,0,0,0,.731-.054,10.865,10.865,0,0,0,1.8,2.251l1.724,1.778c.4.407,1.471,1.56,1.668,1.7.109-.035.109-.289.109-.734Z" transform="translate(-364.699 -631.393)"/>
      <path id="Path_609" data-name="Path 609" d="M444.185,633.718c0-1.264-.069-1.34-.861-1.464l-.349-.055c-.127-.093-.112-.4.037-.457.716.037,1.284.054,1.865.054s1.161-.017,1.877-.054c.146.054.163.364.033.457l-.343.055c-.792.124-.864.2-.864,1.464v4.11c0,1.26.072,1.338.864,1.468l.343.053c.131.09.114.4-.033.458-.7-.036-1.3-.053-1.877-.053s-1.149.017-1.865.053c-.149-.053-.164-.368-.037-.458l.349-.053c.792-.13.861-.207.861-1.468Z" transform="translate(-417.349 -631.393)"/>
      <path id="Path_610" data-name="Path 610" d="M478.72,633.755c-.551-1.211-.625-1.3-1.068-1.411l-.6-.145a.317.317,0,0,1,.014-.457c.478.037,1.085.054,1.655.054.654,0,1.19-.017,1.777-.054a.285.285,0,0,1,0,.457l-.387.055c-.474.072-.474.311-.075,1.213l.905,2.034c.447,1.044.765,1.724,1.037,2.327.367-.77.68-1.539,1.029-2.311.385-.844.9-2.108,1.083-2.642.128-.38.11-.516-.439-.621l-.291-.055a.281.281,0,0,1,.032-.457c.532.037,1.008.054,1.507.054a11.238,11.238,0,0,0,1.3-.054.291.291,0,0,1,.091.457l-.513.108c-.549.111-.659.273-1.246,1.523l-1.4,2.99c-.546,1.169-1.078,2.511-1.3,3.115a.3.3,0,0,1-.22.075.4.4,0,0,1-.228-.075,15.745,15.745,0,0,0-.6-1.574Z" transform="translate(-444.62 -631.393)"/>
      <path id="Path_611" data-name="Path 611" d="M538.208,633.718c0-1.264-.078-1.316-.772-1.464l-.257-.055a.305.305,0,0,1,.037-.457c.531.037,1.1.054,1.706.054h2.6a15.436,15.436,0,0,0,1.7-.054c.026.217.117,1.08.206,1.867a.325.325,0,0,1-.478.037,2.562,2.562,0,0,0-.329-.88c-.293-.439-1.123-.439-1.558-.439h-.81c-.635,0-.656.018-.656.587v2.035c0,.33,0,.363.35.363h.859c.971,0,1.06-.142,1.21-.692l.09-.354a.316.316,0,0,1,.461.04c-.044.533-.044.864-.044,1.285,0,.456,0,.786.044,1.324a.314.314,0,0,1-.461.031l-.09-.349c-.15-.55-.239-.7-1.21-.7h-.859c-.35,0-.35.057-.35.422v1.319a2.811,2.811,0,0,0,.2,1.323c.17.179.5.255,1.547.255,1.168,0,1.846-.055,2.383-1.522a.311.311,0,0,1,.474.071,6.761,6.761,0,0,1-.551,2.036c-1.154-.036-2.125-.053-3.114-.053h-1.615c-.589,0-1.155.017-2.033.053-.151-.053-.169-.368-.039-.458l.495-.053c.785-.094.863-.207.863-1.468Z" transform="translate(-492.486 -631.393)"/>
      <path id="Path_612" data-name="Path 612" d="M592.078,633.941c0-1.191-.016-1.5-.437-1.562l-.52-.071c-.139-.016-.18-.4,0-.458,1.016-.07,2.041-.107,3.049-.107,1.7,0,3.553.27,3.553,2.2a2.114,2.114,0,0,1-1.631,1.961c-.075.072-.048.182,0,.275a11.037,11.037,0,0,0,2.33,2.932,1.649,1.649,0,0,0,.968.386.211.211,0,0,1,0,.291,2.462,2.462,0,0,1-.769.094,2.885,2.885,0,0,1-2.562-1.374c-.464-.589-.957-1.4-1.341-1.979a.836.836,0,0,0-.733-.3c-.475,0-.516.037-.516.3v1.3c0,1.26.074,1.352.859,1.468l.43.053c.125.09.1.4-.04.458-.773-.036-1.374-.053-1.94-.053-.594,0-1.156.017-1.8.053a.266.266,0,0,1-.04-.458l.274-.053c.792-.17.863-.207.863-1.468Zm1.391,1.339c0,.456.017.456.921.456,1.186,0,1.814-.475,1.814-1.742a1.729,1.729,0,0,0-1.924-1.725c-.684,0-.811.039-.811.518Z" transform="translate(-535.76 -631.393)"/>
      <path id="Path_613" data-name="Path 613" d="M650.332,635.608c1.044.529,1.286,1.134,1.286,1.721,0,.844-.611,1.319-1.545,1.319a2.565,2.565,0,0,1-2.179-1.957.283.283,0,0,0-.479.036,3.793,3.793,0,0,0,.389,1.885,3.676,3.676,0,0,0,2.108.571c1.814,0,2.987-.9,2.987-2.33a2.62,2.62,0,0,0-1.485-2.329l-1.139-.585c-.727-.387-1.229-.79-1.229-1.448,0-.627.4-1.245,1.486-1.245a1.822,1.822,0,0,1,1.709,1.573c.091.134.421.109.473-.037a4.682,4.682,0,0,0-.257-1.8,9.288,9.288,0,0,0-1.7-.274c-1.851,0-2.879.941-2.879,2.275a2.583,2.583,0,0,0,1.632,2.2Z" transform="translate(-581.051 -630.566)"/>
      <path id="Path_614" data-name="Path 614" d="M694.761,633.718c0-1.264-.076-1.34-.858-1.464l-.349-.055c-.132-.093-.112-.4.035-.457.715.037,1.284.054,1.869.054s1.159-.017,1.871-.054c.144.054.165.364.039.457l-.352.055c-.788.124-.863.2-.863,1.464v4.11c0,1.26.074,1.338.863,1.468l.352.053c.126.09.105.4-.039.458-.694-.036-1.3-.053-1.871-.053-.585,0-1.154.017-1.869.053-.147-.053-.167-.368-.035-.458l.349-.053c.781-.13.858-.207.858-1.468Z" transform="translate(-617.911 -631.393)"/>
      <path id="Path_615" data-name="Path 615" d="M732.9,631.406c0-.477-.02-.477-.386-.477h-.57c-1.118,0-1.6.111-2.034,1.372a.314.314,0,0,1-.458-.09c.2-.787.4-1.7.492-2.161a.278.278,0,0,1,.334,0c.017.361.271.348,1.007.348h5.1c.681,0,.805-.017.95-.348a.254.254,0,0,1,.335.052,7.662,7.662,0,0,0-.187,2.146.291.291,0,0,1-.458.016c-.128-1.185-.6-1.335-1.7-1.335h-.625c-.343,0-.4,0-.4.477v5.024c0,1.26.073,1.373.855,1.467l.5.053c.128.09.11.4-.035.458-.757-.036-1.453-.053-2.017-.053-.591,0-1.247.017-2.018.053-.15-.053-.167-.367-.04-.458l.5-.053c.784-.094.863-.207.863-1.467Z" transform="translate(-646.713 -629.995)"/>
      <path id="Path_616" data-name="Path 616" d="M787.423,637.313a2.527,2.527,0,0,0-.521-1.557l-1.337-2.478c-.383-.733-.564-.9-1.047-.986l-.473-.092a.3.3,0,0,1,.062-.457c.6.037,1.025.054,1.677.054.557,0,.974-.017,1.562-.054a.273.273,0,0,1,.018.457l-.256.055c-.4.09-.462.2-.165.767l.676,1.3c.278.551.553,1.046.827,1.52.3-.494.569-.932.881-1.52l.73-1.338c.277-.51.317-.681-.124-.733l-.385-.055a.27.27,0,0,1,.034-.457c.552.037.97.054,1.392.054.4,0,.791-.017,1.306-.054a.3.3,0,0,1,.037.457l-.445.092c-.565.111-.655.218-1.225,1.138l-1.141,1.831c-.657,1.041-.692,1.228-.692,1.756v.994c0,1.078.071,1.19.858,1.285l.461.053c.126.09.106.4-.037.458-.809-.036-1.415-.053-1.977-.053-.587,0-1.158.017-1.979.053-.149-.053-.167-.368-.042-.458l.461-.053c.786-.094.863-.207.863-1.285Z" transform="translate(-690.348 -631.393)"/>
      <path id="Path_617" data-name="Path 617" d="M884.089,634.908a4.225,4.225,0,0,1-4.459,4.275c-2.839,0-4.528-1.854-4.528-4.164a4.3,4.3,0,0,1,4.528-4.31A4.1,4.1,0,0,1,884.089,634.908Zm-7.353-.181c0,1.884.859,3.921,2.987,3.921,1.394,0,2.731-.947,2.731-3.465,0-1.964-.935-3.936-2.947-3.936C878.185,631.247,876.737,632.144,876.737,634.727Z" transform="translate(-763.291 -630.566)"/>
      <path id="Path_618" data-name="Path 618" d="M940,633.718c0-1.264-.094-1.3-.769-1.464L939,632.2c-.126-.093-.111-.4.034-.457.5.037,1.067.054,1.655.054h2.548c.807,0,1.506-.017,1.758-.054.02.217.04,1.08.1,1.867a.285.285,0,0,1-.48.037,2.62,2.62,0,0,0-.327-.88c-.314-.459-1.119-.439-1.561-.439h-.716c-.567,0-.622,0-.622.644v2.124c0,.326,0,.371.344.371h.994c.973,0,1.065-.153,1.212-.7l.086-.357a.324.324,0,0,1,.465.043c-.039.531-.039.86-.039,1.283,0,.46,0,.791.039,1.323a.312.312,0,0,1-.465.036l-.086-.355c-.146-.544-.239-.693-1.212-.693h-.994c-.344,0-.344.059-.344.425v1.356c0,1.26.076,1.392.859,1.468l.571.053c.127.09.107.4-.04.458-.912-.036-1.515-.053-2.086-.053-.587,0-1.154.017-1.867.053-.15-.053-.17-.368-.039-.458l.348-.053c.787-.13.863-.207.863-1.468Z" transform="translate(-814.194 -631.393)"/>
      <path id="Path_619" data-name="Path 619" d="M325.067,704.31a19.489,19.489,0,0,0,.19,2.319.355.355,0,0,1-.547.045,2.683,2.683,0,0,0-2.932-2.154c-1.816,0-3.6,1.225-3.6,4.093,0,2.824,1.811,4.431,3.791,4.431a3.3,3.3,0,0,0,3.039-2.135.33.33,0,0,1,.548.024,6.1,6.1,0,0,1-.7,2.274,11.083,11.083,0,0,1-2.85.447,6.475,6.475,0,0,1-3.712-.967,4.492,4.492,0,0,1-2-3.757,4.623,4.623,0,0,1,1.769-3.8,6.714,6.714,0,0,1,4.111-1.223A15.647,15.647,0,0,1,325.067,704.31Z" transform="translate(-316.025 -689.158)"/>
      <path id="Path_620" data-name="Path 620" d="M392.687,708.743a4.855,4.855,0,0,1-5.125,4.911c-3.269,0-5.206-2.133-5.206-4.785a4.934,4.934,0,0,1,5.206-4.957C390.959,703.912,392.687,706.167,392.687,708.743Zm-8.456-.215c0,2.172.992,4.516,3.438,4.516,1.6,0,3.141-1.1,3.141-3.986,0-2.259-1.075-4.539-3.4-4.539C385.9,704.52,384.231,705.554,384.231,708.529Z" transform="translate(-368.899 -689.158)"/>
      <path id="Path_621" data-name="Path 621" d="M457.324,707.6c0-1.371-.022-1.688-.5-1.774l-.636-.1c-.186-.064-.164-.462.025-.527,1.18-.083,2.254-.125,3.372-.125a7.378,7.378,0,0,1,2.529.357,2.533,2.533,0,0,1,1.712,2.466,2.441,2.441,0,0,1-1.753,2.4,5.149,5.149,0,0,1-1.918.317.285.285,0,0,1-.02-.378,2.213,2.213,0,0,0,1.961-2.4,2.031,2.031,0,0,0-2.3-2.154c-.863,0-.863.129-.863.719v5.675c0,1.451.079,1.56.99,1.686l.485.062c.148.106.128.466-.044.529-.883-.042-1.577-.062-2.234-.062-.673,0-1.327.02-2.065.063-.169-.062-.189-.423-.041-.529l.314-.062c.908-.194.991-.235.991-1.686Z" transform="translate(-427.778 -690.087)"/>
      <path id="Path_622" data-name="Path 622" d="M515.279,707.348c0-1.457-.081-1.52-.884-1.687l-.3-.062a.358.358,0,0,1,.041-.526c.614.042,1.271.059,1.961.059h3a18.588,18.588,0,0,0,1.961-.059c.02.254.127,1.244.231,2.152a.377.377,0,0,1-.546.043,2.944,2.944,0,0,0-.383-1.017c-.339-.5-1.284-.5-1.791-.5h-.927c-.74,0-.758.019-.758.673v2.338c0,.381,0,.424.4.424h.994c1.117,0,1.222-.168,1.391-.8l.1-.4a.356.356,0,0,1,.526.045c-.04.611-.04.992-.04,1.475,0,.531,0,.907.04,1.517a.35.35,0,0,1-.526.044l-.1-.4c-.169-.629-.274-.8-1.391-.8h-.994c-.4,0-.4.059-.4.484v1.519a3.133,3.133,0,0,0,.228,1.519c.192.211.572.3,1.772.3,1.349,0,2.131-.062,2.743-1.749.149-.149.486-.107.546.082a7.7,7.7,0,0,1-.632,2.341c-1.329-.042-2.446-.062-3.584-.062H516.1c-.67,0-1.323.02-2.339.063-.166-.062-.192-.423-.042-.529l.571-.062c.907-.105.988-.235.988-1.686Z" transform="translate(-473.963 -690.087)"/>
      <path id="Path_623" data-name="Path 623" d="M583.669,708.382c0-2.109-.132-2.632-.91-2.72l-.674-.062a.351.351,0,0,1,.043-.526c.779.042,1.266.059,1.875.059s1.078-.017,1.75-.059a.351.351,0,0,1,.019.526l-.63.062c-.547.064-.718.631-.718,2.72v3.548c0,.414,0,2.125.065,2.44a.415.415,0,0,1-.443.194c-.234-.293-.653-.739-1.962-2.154l-3.2-3.417c-.8-.845-1.351-1.389-1.626-1.621-.088,0-.088.233-.088.886v2.781c0,2.111.129,2.661.91,2.723l.674.062a.338.338,0,0,1-.042.529c-.781-.042-1.267-.062-1.878-.062s-1.008.02-1.752.063a.35.35,0,0,1-.018-.529l.63-.062c.549-.062.723-.631.723-2.723v-3.77c0-.7-.024-1-.447-1.311a2.482,2.482,0,0,0-.785-.3l-.315-.062a.341.341,0,0,1,.042-.526c.8.059,1.376.059,1.815.059a5.379,5.379,0,0,0,.847-.059,12.248,12.248,0,0,0,2.067,2.59l1.979,2.052c.467.463,1.687,1.788,1.918,1.957.132-.042.132-.338.132-.842Z" transform="translate(-522.903 -690.087)"/>
      <path id="Path_624" data-name="Path 624" d="M657.672,709.185c.673,0,.754,0,.754-.549v-1.287c0-1.457-.081-1.538-.986-1.687l-.4-.062c-.145-.1-.126-.468.044-.526.824.042,1.477.059,2.153.059s1.327-.017,2.148-.059c.172.059.193.426.043.526l-.4.062c-.911.15-1,.23-1,1.687v4.727c0,1.451.085,1.56,1,1.686l.483.062c.149.106.127.466-.042.529-.885-.042-1.578-.062-2.234-.062-.675,0-1.328.02-2.153.063-.17-.062-.189-.423-.044-.529l.4-.062c.905-.144.986-.235.986-1.686v-1.668c0-.53-.042-.547-.754-.547h-3.714c-.714,0-.756.017-.756.547v1.668c0,1.451.081,1.581.987,1.686l.567.062c.152.106.13.466-.039.529-.97-.042-1.666-.062-2.32-.062-.673,0-1.329.02-1.982.063-.169-.062-.189-.423-.041-.529l.232-.062c.884-.235.99-.235.99-1.686v-4.727c0-1.457-.081-1.56-.99-1.687l-.486-.062c-.152-.1-.13-.468.042-.526.906.042,1.562.059,2.235.059s1.328-.017,2.068-.059c.169.059.186.426.041.526l-.317.062c-.882.168-.987.23-.987,1.687v1.287c0,.549.081.549.756.549Z" transform="translate(-583.137 -690.087)"/>
      <path id="Path_625" data-name="Path 625" d="M727.183,710.221c-.487,0-.55.022-.722.509l-.478,1.349c-.233.674-.173.761.228.846l.571.1c.167.106.147.487-.063.529-.53-.042-1.074-.062-1.667-.062s-1.1.037-1.477.063a.34.34,0,0,1-.04-.529l.483-.1c.654-.153.888-.384,1.31-1.393l2.025-4.852a6.968,6.968,0,0,0,.549-1.77,1.894,1.894,0,0,0,.885-.8c.165-.062.293-.021.333.107.083.211.422,1.307.908,2.593l1.9,5.04c.252.694.439.974,1.2,1.118l.341.063a.309.309,0,0,1-.064.529c-.547-.042-1.035-.062-1.747-.062-.761,0-1.374.02-1.9.063a.307.307,0,0,1-.043-.529l.423-.062c.543-.082.524-.214.274-.862l-.507-1.373c-.17-.487-.233-.509-.72-.509Zm1.666-.673c.55,0,.612-.044.378-.651l-.653-1.8a4.285,4.285,0,0,0-.316-.76h-.041a4.493,4.493,0,0,0-.341.719l-.76,1.879c-.233.565-.188.609.277.609Z" transform="translate(-641.892 -689.292)"/>
      <path id="Path_626" data-name="Path 626" d="M796.445,711.461c0-.967-.02-1.1-.972-1.265l-.67-.128a.351.351,0,0,1,.022-.525c.841.045,1.769.061,2.379.061.594,0,1.291-.015,1.793-.061a.37.37,0,0,1,.067.525l-.381.086c-.548.128-.633.251-.633,1.161v.587c0,.506.044.826.335.972a.186.186,0,0,1-.019.3c-.232,0-.675.126-1.263.228a11.578,11.578,0,0,1-2.109.256,6.111,6.111,0,0,1-4.533-1.562,4.588,4.588,0,0,1-1.315-3.2,4.711,4.711,0,0,1,1.333-3.314,6.136,6.136,0,0,1,4.659-1.663,12.873,12.873,0,0,1,2.827.422c.021.418.064,1.265.187,2.381a.328.328,0,0,1-.543.019,2.759,2.759,0,0,0-3-2.214c-2.216,0-3.588,1.712-3.588,4.179a4,4,0,0,0,4.157,4.346c1.117,0,1.262-.212,1.262-1.06Z" transform="translate(-694.492 -689.158)"/>
      <path id="Path_627" data-name="Path 627" d="M859.217,707.348c0-1.457-.082-1.52-.881-1.687l-.3-.062a.349.349,0,0,1,.038-.526c.614.042,1.263.059,1.962.059h2.994a18.73,18.73,0,0,0,1.968-.059c.022.254.122,1.244.225,2.152a.379.379,0,0,1-.549.043,2.947,2.947,0,0,0-.378-1.017c-.337-.5-1.286-.5-1.788-.5h-.934c-.733,0-.757.019-.757.673v2.338c0,.381,0,.424.4.424h.993c1.118,0,1.224-.168,1.394-.8l.1-.4a.358.358,0,0,1,.528.045c-.04.611-.04.992-.04,1.475,0,.531,0,.907.04,1.517a.352.352,0,0,1-.528.044l-.1-.4c-.17-.629-.276-.8-1.394-.8h-.993c-.4,0-.4.059-.4.484v1.519a3.166,3.166,0,0,0,.231,1.519c.193.211.567.3,1.772.3,1.352,0,2.129-.062,2.739-1.749a.362.362,0,0,1,.551.082,7.754,7.754,0,0,1-.632,2.341c-1.325-.042-2.448-.062-3.587-.062H860.04c-.674,0-1.331.02-2.34.063-.168-.062-.188-.423-.039-.529l.566-.062c.908-.105.99-.235.99-1.686Z" transform="translate(-749.251 -690.087)"/>
      <path id="Path_628" data-name="Path 628" d="M927.586,708.382c0-2.109-.123-2.632-.906-2.72l-.673-.062a.35.35,0,0,1,.04-.526c.775.042,1.263.059,1.875.059s1.077-.017,1.752-.059a.351.351,0,0,1,.023.526l-.638.062c-.543.064-.71.631-.71,2.72v3.548c0,.414,0,2.125.061,2.44a.409.409,0,0,1-.443.194c-.233-.293-.656-.739-1.96-2.154l-3.209-3.417c-.8-.845-1.349-1.389-1.622-1.621-.087,0-.087.233-.087.886v2.781c0,2.111.132,2.661.909,2.723l.678.062a.349.349,0,0,1-.041.529c-.786-.042-1.269-.062-1.88-.062s-1.014.02-1.75.063a.354.354,0,0,1-.02-.529l.629-.062c.549-.062.717-.631.717-2.723v-3.77c0-.7-.023-1-.442-1.311a2.478,2.478,0,0,0-.781-.3l-.313-.062a.33.33,0,0,1,.042-.526c.8.059,1.373.059,1.811.059a5.32,5.32,0,0,0,.842-.059,12.575,12.575,0,0,0,2.066,2.59l1.986,2.052c.464.463,1.684,1.788,1.92,1.957.123-.042.123-.338.123-.842Z" transform="translate(-798.175 -690.087)"/>
    </g>
    <rect id="Rectangle_448" data-name="Rectangle 448" width="195.811" height="0.355" transform="translate(8 567.434)"/>
  </g>
</svg>
